<svg width="32" height="32" viewBox="0 0 32 32" fill="none" xmlns="http://www.w3.org/2000/svg">
<path d="M16.3901 19.7495C19.0653 19.7495 21.2339 17.5809 21.2339 14.9058C21.2339 12.2306 19.0653 10.062 16.3901 10.062C13.715 10.062 11.5464 12.2306 11.5464 14.9058C11.5464 17.5809 13.715 19.7495 16.3901 19.7495Z" stroke="url(#paint0_linear_1_10476)" stroke-width="2" stroke-linecap="round" stroke-linejoin="round"/>
<path d="M8.61597 24.5209C9.34484 23.0852 10.457 21.8794 11.8292 21.0371C13.2015 20.1949 14.7801 19.749 16.3902 19.749C18.0003 19.749 19.5789 20.1949 20.9511 21.0371C22.3233 21.8794 23.4355 23.0852 24.1644 24.5209" stroke="url(#paint1_linear_1_10476)" stroke-width="2" stroke-linecap="round" stroke-linejoin="round"/>
<path d="M25.1089 15.8745L28.0151 18.7808L30.9214 15.8745" stroke="url(#paint2_linear_1_10476)" stroke-width="2" stroke-linecap="round" stroke-linejoin="round"/>
<path d="M1.85889 15.8745L4.76514 12.9683L7.67139 15.8745" stroke="url(#paint3_linear_1_10476)" stroke-width="2" stroke-linecap="round" stroke-linejoin="round"/>
<path d="M28.0152 18.7807V15.8744C28.0179 13.3628 27.2071 10.9178 25.7042 8.90548C24.2013 6.89313 22.087 5.42167 19.6779 4.71135C17.2688 4.00102 14.6944 4.09004 12.3401 4.96508C9.98584 5.84012 7.97827 7.45411 6.61792 9.56546" stroke="url(#paint4_linear_1_10476)" stroke-width="2" stroke-linecap="round" stroke-linejoin="round"/>
<path d="M4.76514 12.9683V15.8745C4.7624 18.3862 5.57318 20.8311 7.07613 22.8435C8.57907 24.8558 10.6933 26.3273 13.1024 27.0376C15.5115 27.7479 18.0859 27.6589 20.4402 26.7839C22.7945 25.9088 24.8021 24.2949 26.1624 22.1835" stroke="url(#paint5_linear_1_10476)" stroke-width="2" stroke-linecap="round" stroke-linejoin="round"/>
<defs>
<linearGradient id="paint0_linear_1_10476" x1="11.1888" y1="-1.3554" x2="28.6105" y2="2.68109" gradientUnits="userSpaceOnUse">
<stop stop-color="#FFE986" stop-opacity="0.88"/>
<stop offset="0.670219" stop-color="#BC7E20"/>
<stop offset="1" stop-color="#A74D01"/>
</linearGradient>
<linearGradient id="paint1_linear_1_10476" x1="8.04203" y1="14.1251" x2="26.8089" y2="28.293" gradientUnits="userSpaceOnUse">
<stop stop-color="#FFE986" stop-opacity="0.88"/>
<stop offset="0.670219" stop-color="#BC7E20"/>
<stop offset="1" stop-color="#A74D01"/>
</linearGradient>
<linearGradient id="paint2_linear_1_10476" x1="24.8943" y1="12.4493" x2="33.9615" y2="16.6509" gradientUnits="userSpaceOnUse">
<stop stop-color="#FFE986" stop-opacity="0.88"/>
<stop offset="0.670219" stop-color="#BC7E20"/>
<stop offset="1" stop-color="#A74D01"/>
</linearGradient>
<linearGradient id="paint3_linear_1_10476" x1="1.64433" y1="9.54304" x2="10.7115" y2="13.7446" gradientUnits="userSpaceOnUse">
<stop stop-color="#FFE986" stop-opacity="0.88"/>
<stop offset="0.670219" stop-color="#BC7E20"/>
<stop offset="1" stop-color="#A74D01"/>
</linearGradient>
<linearGradient id="paint4_linear_1_10476" x1="5.82809" y1="-12.9043" x2="42.1532" y2="-0.522155" gradientUnits="userSpaceOnUse">
<stop stop-color="#FFE986" stop-opacity="0.88"/>
<stop offset="0.670219" stop-color="#BC7E20"/>
<stop offset="1" stop-color="#A74D01"/>
</linearGradient>
<linearGradient id="paint5_linear_1_10476" x1="3.9753" y1="-4.17281" x2="40.3004" y2="8.20935" gradientUnits="userSpaceOnUse">
<stop stop-color="#FFE986" stop-opacity="0.88"/>
<stop offset="0.670219" stop-color="#BC7E20"/>
<stop offset="1" stop-color="#A74D01"/>
</linearGradient>
</defs>
</svg>
