<svg width="41" height="41" viewBox="0 0 41 41" fill="none" xmlns="http://www.w3.org/2000/svg">
<mask id="path-1-inside-1_1_10915" fill="white">
<path d="M33.7422 23.9254C33.1224 24.2985 32.3992 24.3663 31.8482 24.061C31.1595 23.6541 30.7462 22.7384 30.7462 21.4835V17.6512C30.7462 15.8198 30.023 14.4971 28.7833 14.1579C26.6826 13.5475 25.0985 16.0911 24.5131 17.0407L20.7939 22.9079V15.6841C20.7594 14.0223 20.2084 13.0388 19.1753 12.7335C18.4866 12.53 17.4535 12.6318 16.4548 14.124L8.15544 27.2151C7.05345 25.1463 6.46802 22.8401 6.46802 20.5C6.46802 12.5979 12.9078 6.18798 20.7939 6.18798C28.68 6.18798 35.1197 12.5979 35.1197 20.5V20.5339V20.5678C35.1886 22.094 34.7065 23.3149 33.7422 23.9254ZM38.2879 20.5V20.4661V20.4322C38.2535 10.8343 30.4018 3 20.7939 3C11.1515 3 3.2998 10.8343 3.2998 20.5C3.2998 30.1318 11.1515 38 20.7939 38C25.2363 38 29.4376 36.3382 32.6747 33.3198C33.329 32.7093 33.3634 31.7258 32.7436 31.0814C32.1581 30.437 31.1595 30.4031 30.5051 30.9796C30.5051 30.9796 30.5051 30.9796 30.4707 31.0136C27.8535 33.4554 24.3409 34.8459 20.725 34.8459C16.4892 34.8459 12.7011 33.0145 10.0839 30.0979L17.5568 18.2955V23.7558C17.5568 26.3672 18.5899 27.2151 19.4508 27.4525C20.3118 27.6899 21.6204 27.5204 23.0323 25.3159L27.1303 18.7703C27.2681 18.5669 27.3714 18.3634 27.5091 18.2277V21.5514C27.5091 23.9932 28.5078 25.9603 30.2297 26.9099C31.7793 27.7917 33.7422 27.6899 35.3608 26.7064C37.3581 25.4176 38.4257 23.1793 38.2879 20.5Z"/>
</mask>
<path d="M33.7422 23.9254C33.1224 24.2985 32.3992 24.3663 31.8482 24.061C31.1595 23.6541 30.7462 22.7384 30.7462 21.4835V17.6512C30.7462 15.8198 30.023 14.4971 28.7833 14.1579C26.6826 13.5475 25.0985 16.0911 24.5131 17.0407L20.7939 22.9079V15.6841C20.7594 14.0223 20.2084 13.0388 19.1753 12.7335C18.4866 12.53 17.4535 12.6318 16.4548 14.124L8.15544 27.2151C7.05345 25.1463 6.46802 22.8401 6.46802 20.5C6.46802 12.5979 12.9078 6.18798 20.7939 6.18798C28.68 6.18798 35.1197 12.5979 35.1197 20.5V20.5339V20.5678C35.1886 22.094 34.7065 23.3149 33.7422 23.9254ZM38.2879 20.5V20.4661V20.4322C38.2535 10.8343 30.4018 3 20.7939 3C11.1515 3 3.2998 10.8343 3.2998 20.5C3.2998 30.1318 11.1515 38 20.7939 38C25.2363 38 29.4376 36.3382 32.6747 33.3198C33.329 32.7093 33.3634 31.7258 32.7436 31.0814C32.1581 30.437 31.1595 30.4031 30.5051 30.9796C30.5051 30.9796 30.5051 30.9796 30.4707 31.0136C27.8535 33.4554 24.3409 34.8459 20.725 34.8459C16.4892 34.8459 12.7011 33.0145 10.0839 30.0979L17.5568 18.2955V23.7558C17.5568 26.3672 18.5899 27.2151 19.4508 27.4525C20.3118 27.6899 21.6204 27.5204 23.0323 25.3159L27.1303 18.7703C27.2681 18.5669 27.3714 18.3634 27.5091 18.2277V21.5514C27.5091 23.9932 28.5078 25.9603 30.2297 26.9099C31.7793 27.7917 33.7422 27.6899 35.3608 26.7064C37.3581 25.4176 38.4257 23.1793 38.2879 20.5Z" fill="url(#paint0_linear_1_10915)"/>
<path d="M33.7422 23.9254C33.1224 24.2985 32.3992 24.3663 31.8482 24.061C31.1595 23.6541 30.7462 22.7384 30.7462 21.4835V17.6512C30.7462 15.8198 30.023 14.4971 28.7833 14.1579C26.6826 13.5475 25.0985 16.0911 24.5131 17.0407L20.7939 22.9079V15.6841C20.7594 14.0223 20.2084 13.0388 19.1753 12.7335C18.4866 12.53 17.4535 12.6318 16.4548 14.124L8.15544 27.2151C7.05345 25.1463 6.46802 22.8401 6.46802 20.5C6.46802 12.5979 12.9078 6.18798 20.7939 6.18798C28.68 6.18798 35.1197 12.5979 35.1197 20.5V20.5339V20.5678C35.1886 22.094 34.7065 23.3149 33.7422 23.9254ZM38.2879 20.5V20.4661V20.4322C38.2535 10.8343 30.4018 3 20.7939 3C11.1515 3 3.2998 10.8343 3.2998 20.5C3.2998 30.1318 11.1515 38 20.7939 38C25.2363 38 29.4376 36.3382 32.6747 33.3198C33.329 32.7093 33.3634 31.7258 32.7436 31.0814C32.1581 30.437 31.1595 30.4031 30.5051 30.9796C30.5051 30.9796 30.5051 30.9796 30.4707 31.0136C27.8535 33.4554 24.3409 34.8459 20.725 34.8459C16.4892 34.8459 12.7011 33.0145 10.0839 30.0979L17.5568 18.2955V23.7558C17.5568 26.3672 18.5899 27.2151 19.4508 27.4525C20.3118 27.6899 21.6204 27.5204 23.0323 25.3159L27.1303 18.7703C27.2681 18.5669 27.3714 18.3634 27.5091 18.2277V21.5514C27.5091 23.9932 28.5078 25.9603 30.2297 26.9099C31.7793 27.7917 33.7422 27.6899 35.3608 26.7064C37.3581 25.4176 38.4257 23.1793 38.2879 20.5Z" fill="#D1D2D7" fill-opacity="0.3"/>
<path d="M33.7422 23.9254L44.0553 41.0613L44.2493 40.9446L44.4405 40.8235L33.7422 23.9254ZM31.8482 24.061L21.6738 41.2797L21.9132 41.4212L22.1566 41.556L31.8482 24.061ZM28.7833 14.1579L23.2021 33.3634L23.3537 33.4075L23.5059 33.4491L28.7833 14.1579ZM24.5131 17.0407L41.4052 27.7485L41.4722 27.6428L41.5378 27.5364L24.5131 17.0407ZM20.7939 22.9079H0.793874V91.815L37.686 33.6157L20.7939 22.9079ZM20.7939 15.6841H40.7939V15.4769L40.7896 15.2697L20.7939 15.6841ZM19.1753 12.7335L13.5085 31.9139L19.1753 12.7335ZM16.4548 14.124L-0.166418 3.0004L-0.304139 3.20618L-0.436723 3.41532L16.4548 14.124ZM8.15544 27.2151L-9.49647 36.6178L6.6536 66.9368L25.047 37.9238L8.15544 27.2151ZM35.1197 20.5678H15.1197V21.0189L15.1401 21.4695L35.1197 20.5678ZM38.2879 20.5H18.2879V21.0138L18.3143 21.5269L38.2879 20.5ZM38.2879 20.4322H58.2879V20.3963L58.2878 20.3604L38.2879 20.4322ZM32.6747 33.3198L46.3141 47.9473L46.3184 47.9433L32.6747 33.3198ZM32.7436 31.0814L17.9406 44.5302L18.1323 44.7413L18.3299 44.9467L32.7436 31.0814ZM30.5051 30.9796L17.2828 15.974L16.8667 16.3407L16.4715 16.7298L30.5051 30.9796ZM30.4707 31.0136L44.1144 45.6371L44.3119 45.4529L44.5043 45.2634L30.4707 31.0136ZM10.0839 30.0979L-6.81372 19.3988L-14.9117 32.1885L-4.80168 43.4552L10.0839 30.0979ZM17.5568 18.2955H37.5568V-50.6781L0.659142 7.59649L17.5568 18.2955ZM23.0323 25.3159L39.874 36.1028L39.9295 36.0162L39.984 35.929L23.0323 25.3159ZM27.1303 18.7703L10.5682 7.55887L10.368 7.85458L10.1786 8.15724L27.1303 18.7703ZM27.5091 18.2277H47.5091V-29.5394L13.4755 3.9779L27.5091 18.2277ZM30.2297 26.9099L40.1208 9.52696L40.0049 9.46105L39.8882 9.3967L30.2297 26.9099ZM35.3608 26.7064L45.7468 43.7982L45.9774 43.6581L46.2042 43.5118L35.3608 26.7064ZM23.4291 6.78946C27.28 4.47187 34.3146 2.56361 41.5398 6.56611L22.1566 41.556C30.4837 46.1689 38.9648 44.125 44.0553 41.0613L23.4291 6.78946ZM42.0226 6.84243C50.0299 11.5739 50.7462 19.3346 50.7462 21.4835H10.7462C10.7462 26.1421 12.289 35.7342 21.6738 41.2797L42.0226 6.84243ZM50.7462 21.4835V17.6512H10.7462V21.4835H50.7462ZM50.7462 17.6512C50.7462 12.04 48.1754 -1.27195 34.0607 -5.13323L23.5059 33.4491C18.2264 32.0048 14.6564 28.4822 12.7628 25.0872C11.0256 21.9724 10.7462 19.1865 10.7462 17.6512H50.7462ZM34.3645 -5.04753C23.3807 -8.23949 15.3459 -2.30637 12.4841 0.346192C9.51413 3.09909 7.71692 6.1743 7.48837 6.54503L41.5378 27.5364C41.8947 26.9575 41.1822 28.2861 39.6758 29.6824C38.2776 30.9784 32.0852 35.9449 23.2021 33.3634L34.3645 -5.04753ZM7.62098 6.3329L3.90177 12.2002L37.686 33.6157L41.4052 27.7485L7.62098 6.3329ZM40.7939 22.9079V15.6841H0.793874V22.9079H40.7939ZM40.7896 15.2697C40.734 12.5859 40.2612 8.37331 37.8725 4.04195C35.161 -0.87499 30.605 -4.74423 24.8422 -6.44685L13.5085 31.9139C8.77879 30.5165 5.01484 27.2917 2.84567 23.3582C0.99944 20.0104 0.819345 17.1205 0.798166 16.0985L40.7896 15.2697ZM24.8422 -6.44685C20.9119 -7.60806 15.8135 -7.88767 10.5428 -5.79233C5.40438 -3.74957 1.97215 -0.195109 -0.166418 3.0004L33.076 25.2477C31.9361 26.9509 29.5198 29.7084 25.3198 31.3781C20.9875 33.1004 16.7501 32.8716 13.5085 31.9139L24.8422 -6.44685ZM-0.436723 3.41532L-8.73608 16.5064L25.047 37.9238L33.3463 24.8328L-0.436723 3.41532ZM25.8074 17.8125C26.22 18.5872 26.468 19.5037 26.468 20.5H-13.532C-13.532 26.1765 -12.1131 31.7055 -9.49647 36.6178L25.8074 17.8125ZM26.468 20.5C26.468 23.6833 23.9137 26.188 20.7939 26.188V-13.812C1.90181 -13.812 -13.532 1.51248 -13.532 20.5H26.468ZM20.7939 26.188C17.674 26.188 15.1197 23.6833 15.1197 20.5H55.1197C55.1197 1.51248 39.6859 -13.812 20.7939 -13.812V26.188ZM15.1197 20.5V20.5339H55.1197V20.5H15.1197ZM15.1197 20.5339V20.5678H55.1197V20.5339H15.1197ZM15.1401 21.4695C15.0278 18.9821 15.6802 11.6893 23.044 7.02726L44.4405 40.8235C53.7328 34.9405 55.3494 25.2059 55.0994 19.6662L15.1401 21.4695ZM58.2879 20.5V20.4661H18.2879V20.5H58.2879ZM58.2879 20.4661V20.4322H18.2879V20.4661H58.2879ZM58.2878 20.3604C58.2139 -0.246501 41.4281 -17 20.7939 -17V23C19.3756 23 18.2931 21.9151 18.2881 20.5039L58.2878 20.3604ZM20.7939 -17C0.114288 -17 -16.7002 -0.219899 -16.7002 20.5H23.2998C23.2998 21.8885 22.1887 23 20.7939 23V-17ZM-16.7002 20.5C-16.7002 41.1608 0.0890648 58 20.7939 58V18C22.2139 18 23.2998 19.1028 23.2998 20.5H-16.7002ZM20.7939 58C30.3104 58 39.3828 54.4104 46.3141 47.9473L19.0353 18.6922C19.2419 18.4995 19.518 18.3168 19.8491 18.1863C20.1808 18.0554 20.5094 18 20.7939 18V58ZM46.3184 47.9433C54.9961 39.8471 55.6498 26.0445 47.1572 17.2161L18.3299 44.9467C11.0771 37.407 11.6619 25.5715 19.031 18.6962L46.3184 47.9433ZM47.5466 17.6326C39.2732 8.52611 25.7509 8.51226 17.2828 15.974L43.7275 45.9853C36.5681 52.2939 25.0431 52.3479 17.9406 44.5302L47.5466 17.6326ZM30.5051 30.9796C16.4708 16.7305 16.4712 16.7302 16.4715 16.7298C16.4715 16.7299 16.4715 16.7298 16.4715 16.7298C16.4715 16.7298 16.4715 16.7298 16.4715 16.7298C16.4715 16.7298 16.4715 16.7298 16.4715 16.7298C16.4715 16.7298 16.4715 16.7298 16.4715 16.7298C16.4715 16.7298 16.4715 16.7298 16.4715 16.7298C16.4715 16.7298 16.4715 16.7298 16.4715 16.7298C16.4715 16.7298 16.4715 16.7298 16.4715 16.7298C16.4714 16.7299 16.4716 16.7297 16.4715 16.7298C16.4715 16.7299 16.4715 16.7298 16.4715 16.7298C16.4715 16.7298 16.4715 16.7298 16.4715 16.7298C16.4715 16.7298 16.4715 16.7298 16.4715 16.7298C16.4715 16.7299 16.4715 16.7298 16.4715 16.7299C16.4715 16.7299 16.4715 16.7298 16.4715 16.7299C16.4715 16.7299 16.4715 16.7299 16.4715 16.7299C16.4714 16.7299 16.4715 16.7299 16.4714 16.7299C16.4713 16.7301 16.4714 16.73 16.471 16.7304C16.4706 16.7308 16.4704 16.7309 16.4697 16.7316C16.4567 16.7445 16.4807 16.7208 16.4672 16.7341C16.4528 16.7483 16.4644 16.7369 16.4371 16.7638L44.5043 45.2634C44.5278 45.2403 44.524 45.2441 44.5345 45.2337C44.5378 45.2305 44.5366 45.2316 44.5382 45.23C44.5385 45.2297 44.5381 45.2301 44.5383 45.2299C44.5384 45.2298 44.5383 45.2299 44.5384 45.2299C44.5389 45.2293 44.5378 45.2304 44.5384 45.2298C44.5385 45.2298 44.5384 45.2299 44.5384 45.2298C44.5384 45.2298 44.5384 45.2298 44.5384 45.2298C44.5384 45.2298 44.5384 45.2298 44.5384 45.2298C44.5384 45.2298 44.5384 45.2298 44.5385 45.2298C44.5385 45.2298 44.5385 45.2298 44.5385 45.2298C44.5385 45.2297 44.5385 45.2298 44.5385 45.2297C44.5385 45.2297 44.5385 45.2297 44.5386 45.2297C44.5398 45.2285 44.5376 45.2307 44.5387 45.2295C44.5388 45.2295 44.5388 45.2295 44.5388 45.2295C44.5388 45.2295 44.5388 45.2295 44.5388 45.2295C44.5388 45.2295 44.5388 45.2294 44.5388 45.2295C44.5388 45.2295 44.5388 45.2295 44.5388 45.2295C44.5388 45.2295 44.5388 45.2295 44.5388 45.2295C44.5388 45.2295 44.5388 45.2294 44.5389 45.2294C44.5391 45.2291 44.5395 45.2287 30.5051 30.9796ZM16.827 16.39C17.9152 15.3747 19.2795 14.8459 20.725 14.8459V54.8459C29.4023 54.8459 37.7918 51.5362 44.1144 45.6371L16.827 16.39ZM20.725 14.8459C22.4033 14.8459 23.9525 15.6071 24.9695 16.7405L-4.80168 43.4552C1.44983 50.422 10.5751 54.8459 20.725 54.8459V14.8459ZM26.9816 40.7969L34.4544 28.9946L0.659142 7.59649L-6.81372 19.3988L26.9816 40.7969ZM-2.44322 18.2955V23.7558H37.5568V18.2955H-2.44322ZM-2.44322 23.7558C-2.44322 27.5262 -1.71619 32.5377 1.3669 37.3244C4.69144 42.4859 9.51649 45.4596 14.1342 46.7329L24.7674 8.17212C28.5242 9.20807 32.4023 11.6391 34.995 15.6645C37.3463 19.315 37.5568 22.5968 37.5568 23.7558H-2.44322ZM14.1342 46.7329C18.5507 47.9508 24.0782 47.9772 29.566 45.3892C34.6296 43.0011 37.8735 39.2261 39.874 36.1028L6.19057 14.529C6.77911 13.6101 8.66277 11.0221 12.5039 9.21063C16.7691 7.19913 21.2119 7.19168 24.7674 8.17212L14.1342 46.7329ZM39.984 35.929L44.0821 29.3835L10.1786 8.15724L6.08053 14.7028L39.984 35.929ZM43.6924 29.9818C43.9312 29.6291 44.115 29.3357 44.1766 29.2374C44.2972 29.0448 44.1889 29.2183 44.1179 29.3281C44.0159 29.486 43.7518 29.8902 43.3725 30.3926C42.9891 30.9003 42.3824 31.6506 41.5428 32.4775L13.4755 3.9779C12.5669 4.87265 11.8957 5.6993 11.4499 6.28964C11.0082 6.87473 10.6838 7.36791 10.5215 7.61911C10.3903 7.82212 10.2217 8.0932 10.2799 8.0002C10.283 7.99534 10.3146 7.94483 10.3601 7.87414C10.4069 7.80127 10.4781 7.69201 10.5682 7.55887L43.6924 29.9818ZM7.50912 18.2277V21.5514H47.5091V18.2277H7.50912ZM7.50912 21.5514C7.50912 29.2041 10.8386 39.0556 20.5711 44.4231L39.8882 9.3967C46.177 12.865 47.5091 18.7823 47.5091 21.5514H7.50912ZM20.3385 44.2928C28.9504 49.1931 38.6989 48.081 45.7468 43.7982L24.9748 9.61457C28.7856 7.29885 34.6083 6.39028 40.1208 9.52696L20.3385 44.2928ZM46.2042 43.5118C55.0069 37.832 58.716 28.3113 58.2616 19.4731L18.3143 21.5269C18.2321 19.9274 18.4849 17.8152 19.5458 15.5724C20.6296 13.2812 22.3583 11.2941 24.5174 9.90101L46.2042 43.5118Z" fill="url(#paint1_linear_1_10915)" mask="url(#path-1-inside-1_1_10915)"/>
<path d="M33.7422 23.9254L44.0553 41.0613L44.2493 40.9446L44.4405 40.8235L33.7422 23.9254ZM31.8482 24.061L21.6738 41.2797L21.9132 41.4212L22.1566 41.556L31.8482 24.061ZM28.7833 14.1579L23.2021 33.3634L23.3537 33.4075L23.5059 33.4491L28.7833 14.1579ZM24.5131 17.0407L41.4052 27.7485L41.4722 27.6428L41.5378 27.5364L24.5131 17.0407ZM20.7939 22.9079H0.793874V91.815L37.686 33.6157L20.7939 22.9079ZM20.7939 15.6841H40.7939V15.4769L40.7896 15.2697L20.7939 15.6841ZM19.1753 12.7335L13.5085 31.9139L19.1753 12.7335ZM16.4548 14.124L-0.166418 3.0004L-0.304139 3.20618L-0.436723 3.41532L16.4548 14.124ZM8.15544 27.2151L-9.49647 36.6178L6.6536 66.9368L25.047 37.9238L8.15544 27.2151ZM35.1197 20.5678H15.1197V21.0189L15.1401 21.4695L35.1197 20.5678ZM38.2879 20.5H18.2879V21.0138L18.3143 21.5269L38.2879 20.5ZM38.2879 20.4322H58.2879V20.3963L58.2878 20.3604L38.2879 20.4322ZM32.6747 33.3198L46.3141 47.9473L46.3184 47.9433L32.6747 33.3198ZM32.7436 31.0814L17.9406 44.5302L18.1323 44.7413L18.3299 44.9467L32.7436 31.0814ZM30.5051 30.9796L17.2828 15.974L16.8667 16.3407L16.4715 16.7298L30.5051 30.9796ZM30.4707 31.0136L44.1144 45.6371L44.3119 45.4529L44.5043 45.2634L30.4707 31.0136ZM10.0839 30.0979L-6.81372 19.3988L-14.9117 32.1885L-4.80168 43.4552L10.0839 30.0979ZM17.5568 18.2955H37.5568V-50.6781L0.659142 7.59649L17.5568 18.2955ZM23.0323 25.3159L39.874 36.1028L39.9295 36.0162L39.984 35.929L23.0323 25.3159ZM27.1303 18.7703L10.5682 7.55887L10.368 7.85458L10.1786 8.15724L27.1303 18.7703ZM27.5091 18.2277H47.5091V-29.5394L13.4755 3.9779L27.5091 18.2277ZM30.2297 26.9099L40.1208 9.52696L40.0049 9.46105L39.8882 9.3967L30.2297 26.9099ZM35.3608 26.7064L45.7468 43.7982L45.9774 43.6581L46.2042 43.5118L35.3608 26.7064ZM23.4291 6.78946C27.28 4.47187 34.3146 2.56361 41.5398 6.56611L22.1566 41.556C30.4837 46.1689 38.9648 44.125 44.0553 41.0613L23.4291 6.78946ZM42.0226 6.84243C50.0299 11.5739 50.7462 19.3346 50.7462 21.4835H10.7462C10.7462 26.1421 12.289 35.7342 21.6738 41.2797L42.0226 6.84243ZM50.7462 21.4835V17.6512H10.7462V21.4835H50.7462ZM50.7462 17.6512C50.7462 12.04 48.1754 -1.27195 34.0607 -5.13323L23.5059 33.4491C18.2264 32.0048 14.6564 28.4822 12.7628 25.0872C11.0256 21.9724 10.7462 19.1865 10.7462 17.6512H50.7462ZM34.3645 -5.04753C23.3807 -8.23949 15.3459 -2.30637 12.4841 0.346192C9.51413 3.09909 7.71692 6.1743 7.48837 6.54503L41.5378 27.5364C41.8947 26.9575 41.1822 28.2861 39.6758 29.6824C38.2776 30.9784 32.0852 35.9449 23.2021 33.3634L34.3645 -5.04753ZM7.62098 6.3329L3.90177 12.2002L37.686 33.6157L41.4052 27.7485L7.62098 6.3329ZM40.7939 22.9079V15.6841H0.793874V22.9079H40.7939ZM40.7896 15.2697C40.734 12.5859 40.2612 8.37331 37.8725 4.04195C35.161 -0.87499 30.605 -4.74423 24.8422 -6.44685L13.5085 31.9139C8.77879 30.5165 5.01484 27.2917 2.84567 23.3582C0.99944 20.0104 0.819345 17.1205 0.798166 16.0985L40.7896 15.2697ZM24.8422 -6.44685C20.9119 -7.60806 15.8135 -7.88767 10.5428 -5.79233C5.40438 -3.74957 1.97215 -0.195109 -0.166418 3.0004L33.076 25.2477C31.9361 26.9509 29.5198 29.7084 25.3198 31.3781C20.9875 33.1004 16.7501 32.8716 13.5085 31.9139L24.8422 -6.44685ZM-0.436723 3.41532L-8.73608 16.5064L25.047 37.9238L33.3463 24.8328L-0.436723 3.41532ZM25.8074 17.8125C26.22 18.5872 26.468 19.5037 26.468 20.5H-13.532C-13.532 26.1765 -12.1131 31.7055 -9.49647 36.6178L25.8074 17.8125ZM26.468 20.5C26.468 23.6833 23.9137 26.188 20.7939 26.188V-13.812C1.90181 -13.812 -13.532 1.51248 -13.532 20.5H26.468ZM20.7939 26.188C17.674 26.188 15.1197 23.6833 15.1197 20.5H55.1197C55.1197 1.51248 39.6859 -13.812 20.7939 -13.812V26.188ZM15.1197 20.5V20.5339H55.1197V20.5H15.1197ZM15.1197 20.5339V20.5678H55.1197V20.5339H15.1197ZM15.1401 21.4695C15.0278 18.9821 15.6802 11.6893 23.044 7.02726L44.4405 40.8235C53.7328 34.9405 55.3494 25.2059 55.0994 19.6662L15.1401 21.4695ZM58.2879 20.5V20.4661H18.2879V20.5H58.2879ZM58.2879 20.4661V20.4322H18.2879V20.4661H58.2879ZM58.2878 20.3604C58.2139 -0.246501 41.4281 -17 20.7939 -17V23C19.3756 23 18.2931 21.9151 18.2881 20.5039L58.2878 20.3604ZM20.7939 -17C0.114288 -17 -16.7002 -0.219899 -16.7002 20.5H23.2998C23.2998 21.8885 22.1887 23 20.7939 23V-17ZM-16.7002 20.5C-16.7002 41.1608 0.0890648 58 20.7939 58V18C22.2139 18 23.2998 19.1028 23.2998 20.5H-16.7002ZM20.7939 58C30.3104 58 39.3828 54.4104 46.3141 47.9473L19.0353 18.6922C19.2419 18.4995 19.518 18.3168 19.8491 18.1863C20.1808 18.0554 20.5094 18 20.7939 18V58ZM46.3184 47.9433C54.9961 39.8471 55.6498 26.0445 47.1572 17.2161L18.3299 44.9467C11.0771 37.407 11.6619 25.5715 19.031 18.6962L46.3184 47.9433ZM47.5466 17.6326C39.2732 8.52611 25.7509 8.51226 17.2828 15.974L43.7275 45.9853C36.5681 52.2939 25.0431 52.3479 17.9406 44.5302L47.5466 17.6326ZM30.5051 30.9796C16.4708 16.7305 16.4712 16.7302 16.4715 16.7298C16.4715 16.7299 16.4715 16.7298 16.4715 16.7298C16.4715 16.7298 16.4715 16.7298 16.4715 16.7298C16.4715 16.7298 16.4715 16.7298 16.4715 16.7298C16.4715 16.7298 16.4715 16.7298 16.4715 16.7298C16.4715 16.7298 16.4715 16.7298 16.4715 16.7298C16.4715 16.7298 16.4715 16.7298 16.4715 16.7298C16.4715 16.7298 16.4715 16.7298 16.4715 16.7298C16.4714 16.7299 16.4716 16.7297 16.4715 16.7298C16.4715 16.7299 16.4715 16.7298 16.4715 16.7298C16.4715 16.7298 16.4715 16.7298 16.4715 16.7298C16.4715 16.7298 16.4715 16.7298 16.4715 16.7298C16.4715 16.7299 16.4715 16.7298 16.4715 16.7299C16.4715 16.7299 16.4715 16.7298 16.4715 16.7299C16.4715 16.7299 16.4715 16.7299 16.4715 16.7299C16.4714 16.7299 16.4715 16.7299 16.4714 16.7299C16.4713 16.7301 16.4714 16.73 16.471 16.7304C16.4706 16.7308 16.4704 16.7309 16.4697 16.7316C16.4567 16.7445 16.4807 16.7208 16.4672 16.7341C16.4528 16.7483 16.4644 16.7369 16.4371 16.7638L44.5043 45.2634C44.5278 45.2403 44.524 45.2441 44.5345 45.2337C44.5378 45.2305 44.5366 45.2316 44.5382 45.23C44.5385 45.2297 44.5381 45.2301 44.5383 45.2299C44.5384 45.2298 44.5383 45.2299 44.5384 45.2299C44.5389 45.2293 44.5378 45.2304 44.5384 45.2298C44.5385 45.2298 44.5384 45.2299 44.5384 45.2298C44.5384 45.2298 44.5384 45.2298 44.5384 45.2298C44.5384 45.2298 44.5384 45.2298 44.5384 45.2298C44.5384 45.2298 44.5384 45.2298 44.5385 45.2298C44.5385 45.2298 44.5385 45.2298 44.5385 45.2298C44.5385 45.2297 44.5385 45.2298 44.5385 45.2297C44.5385 45.2297 44.5385 45.2297 44.5386 45.2297C44.5398 45.2285 44.5376 45.2307 44.5387 45.2295C44.5388 45.2295 44.5388 45.2295 44.5388 45.2295C44.5388 45.2295 44.5388 45.2295 44.5388 45.2295C44.5388 45.2295 44.5388 45.2294 44.5388 45.2295C44.5388 45.2295 44.5388 45.2295 44.5388 45.2295C44.5388 45.2295 44.5388 45.2295 44.5388 45.2295C44.5388 45.2295 44.5388 45.2294 44.5389 45.2294C44.5391 45.2291 44.5395 45.2287 30.5051 30.9796ZM16.827 16.39C17.9152 15.3747 19.2795 14.8459 20.725 14.8459V54.8459C29.4023 54.8459 37.7918 51.5362 44.1144 45.6371L16.827 16.39ZM20.725 14.8459C22.4033 14.8459 23.9525 15.6071 24.9695 16.7405L-4.80168 43.4552C1.44983 50.422 10.5751 54.8459 20.725 54.8459V14.8459ZM26.9816 40.7969L34.4544 28.9946L0.659142 7.59649L-6.81372 19.3988L26.9816 40.7969ZM-2.44322 18.2955V23.7558H37.5568V18.2955H-2.44322ZM-2.44322 23.7558C-2.44322 27.5262 -1.71619 32.5377 1.3669 37.3244C4.69144 42.4859 9.51649 45.4596 14.1342 46.7329L24.7674 8.17212C28.5242 9.20807 32.4023 11.6391 34.995 15.6645C37.3463 19.315 37.5568 22.5968 37.5568 23.7558H-2.44322ZM14.1342 46.7329C18.5507 47.9508 24.0782 47.9772 29.566 45.3892C34.6296 43.0011 37.8735 39.2261 39.874 36.1028L6.19057 14.529C6.77911 13.6101 8.66277 11.0221 12.5039 9.21063C16.7691 7.19913 21.2119 7.19168 24.7674 8.17212L14.1342 46.7329ZM39.984 35.929L44.0821 29.3835L10.1786 8.15724L6.08053 14.7028L39.984 35.929ZM43.6924 29.9818C43.9312 29.6291 44.115 29.3357 44.1766 29.2374C44.2972 29.0448 44.1889 29.2183 44.1179 29.3281C44.0159 29.486 43.7518 29.8902 43.3725 30.3926C42.9891 30.9003 42.3824 31.6506 41.5428 32.4775L13.4755 3.9779C12.5669 4.87265 11.8957 5.6993 11.4499 6.28964C11.0082 6.87473 10.6838 7.36791 10.5215 7.61911C10.3903 7.82212 10.2217 8.0932 10.2799 8.0002C10.283 7.99534 10.3146 7.94483 10.3601 7.87414C10.4069 7.80127 10.4781 7.69201 10.5682 7.55887L43.6924 29.9818ZM7.50912 18.2277V21.5514H47.5091V18.2277H7.50912ZM7.50912 21.5514C7.50912 29.2041 10.8386 39.0556 20.5711 44.4231L39.8882 9.3967C46.177 12.865 47.5091 18.7823 47.5091 21.5514H7.50912ZM20.3385 44.2928C28.9504 49.1931 38.6989 48.081 45.7468 43.7982L24.9748 9.61457C28.7856 7.29885 34.6083 6.39028 40.1208 9.52696L20.3385 44.2928ZM46.2042 43.5118C55.0069 37.832 58.716 28.3113 58.2616 19.4731L18.3143 21.5269C18.2321 19.9274 18.4849 17.8152 19.5458 15.5724C20.6296 13.2812 22.3583 11.2941 24.5174 9.90101L46.2042 43.5118Z" fill="#D1D2D7" fill-opacity="0.3" mask="url(#path-1-inside-1_1_10915)"/>
<defs>
<linearGradient id="paint0_linear_1_10915" x1="38.2998" y1="38" x2="16.5191" y2="21.0316" gradientUnits="userSpaceOnUse">
<stop stop-color="#ECAF5A"/>
<stop offset="1" stop-color="#89683D"/>
</linearGradient>
<linearGradient id="paint1_linear_1_10915" x1="38.2998" y1="38" x2="16.5191" y2="21.0316" gradientUnits="userSpaceOnUse">
<stop stop-color="#ECAF5A"/>
<stop offset="1" stop-color="#89683D"/>
</linearGradient>
</defs>
</svg>
