<svg width="8" height="12" viewBox="0 0 8 12" fill="none" xmlns="http://www.w3.org/2000/svg">
<mask id="path-1-inside-1_1_10588" fill="white">
<path d="M1.07453 12C0.923103 11.998 0.777915 11.942 0.667467 11.8428C0.560185 11.7391 0.5 11.599 0.5 11.4531C0.5 11.3072 0.560185 11.1671 0.667467 11.0635L5.9807 5.98423L0.667467 0.905014C0.576364 0.798756 0.529806 0.663859 0.53685 0.526562C0.543895 0.389264 0.604038 0.259383 0.70558 0.162182C0.807123 0.0649814 0.942805 0.00741029 1.08623 0.00066712C1.22966 -0.00607605 1.37059 0.0384909 1.48159 0.125699L7.19474 5.59458C7.30202 5.69826 7.36221 5.8383 7.36221 5.98423C7.36221 6.13017 7.30202 6.27021 7.19474 6.37389L1.48159 11.8428C1.37114 11.942 1.22595 11.998 1.07453 12Z"/>
</mask>
<path d="M1.07453 12L1.04202 14.4998L1.07453 14.5002L1.10704 14.4998L1.07453 12ZM0.667467 11.8428L-1.06991 13.6404L-1.03697 13.6723L-1.00288 13.7029L0.667467 11.8428ZM0.5 11.4531H3H0.5ZM0.667467 11.0635L-1.06008 9.25631L-1.06991 9.26582L0.667467 11.0635ZM5.9807 5.98423L7.70822 7.79135L9.59859 5.98423L7.70822 4.17712L5.9807 5.98423ZM0.667467 0.905014L-1.23045 2.53225L-1.14972 2.62642L-1.06006 2.71213L0.667467 0.905014ZM1.48159 0.125699L3.21033 -1.68025L3.12209 -1.76472L3.02605 -1.84017L1.48159 0.125699ZM7.19474 5.59458L8.93214 3.79692L8.92348 3.78862L7.19474 5.59458ZM7.19474 6.37389L8.9235 8.17987L8.93212 8.17153L7.19474 6.37389ZM1.48159 11.8428L3.15193 13.7029L3.18156 13.6763L3.21033 13.6487L1.48159 11.8428ZM1.10704 9.50021C1.54759 9.50594 1.9879 9.66846 2.33781 9.98268L-1.00288 13.7029C-0.432068 14.2154 0.29862 14.4901 1.04202 14.4998L1.10704 9.50021ZM2.40485 10.0451C2.77267 10.4006 3 10.9043 3 11.4531H-2C-2 12.2938 -1.6523 13.0775 -1.06991 13.6404L2.40485 10.0451ZM3 11.4531C3 12.0019 2.77267 12.5056 2.40485 12.8611L-1.06991 9.26582C-1.6523 9.82868 -2 10.6125 -2 11.4531H3ZM2.39499 12.8706L7.70822 7.79135L4.25317 4.17712L-1.06006 9.25634L2.39499 12.8706ZM7.70822 4.17712L2.39499 -0.9021L-1.06006 2.71213L4.25317 7.79135L7.70822 4.17712ZM2.56539 -0.722225C2.88315 -0.351597 3.06003 0.138926 3.03357 0.654661L-1.95987 0.398462C-2.00042 1.18879 -1.73043 1.94911 -1.23045 2.53225L2.56539 -0.722225ZM3.03357 0.654661C3.00713 1.16983 2.78187 1.63545 2.43432 1.96814L-1.02316 -1.64377C-1.57379 -1.11668 -1.91935 -0.391301 -1.95987 0.398462L3.03357 0.654661ZM2.43432 1.96814C2.08963 2.29808 1.64893 2.47697 1.20364 2.49791L0.96883 -2.49657C0.236682 -2.46215 -0.475387 -2.16812 -1.02316 -1.64377L2.43432 1.96814ZM1.20364 2.49791C0.758592 2.51883 0.307128 2.38225 -0.0628633 2.09157L3.02605 -1.84017C2.43405 -2.30527 1.70074 -2.53098 0.96883 -2.49657L1.20364 2.49791ZM-0.247147 1.93165L5.466 7.40053L8.92348 3.78862L3.21033 -1.68025L-0.247147 1.93165ZM5.45736 7.39222C5.08953 7.03672 4.86221 6.53301 4.86221 5.98423H9.86221C9.86221 5.14359 9.51451 4.35981 8.93212 3.79694L5.45736 7.39222ZM4.86221 5.98423C4.86221 5.43546 5.08953 4.93175 5.45736 4.57625L8.93212 8.17153C9.51451 7.60866 9.86221 6.82488 9.86221 5.98423H4.86221ZM5.466 4.56794L-0.247147 10.0368L3.21033 13.6487L8.92348 8.17984L5.466 4.56794ZM-0.188753 9.98268C0.161159 9.66846 0.601471 9.50594 1.04202 9.50021L1.10704 14.4998C1.85044 14.4901 2.58113 14.2154 3.15193 13.7029L-0.188753 9.98268Z" fill="url(#paint0_linear_1_10588)" mask="url(#path-1-inside-1_1_10588)"/>
<defs>
<linearGradient id="paint0_linear_1_10588" x1="0.246697" y1="-14.1429" x2="13.0256" y2="-12.4497" gradientUnits="userSpaceOnUse">
<stop stop-color="#FFE986" stop-opacity="0.88"/>
<stop offset="0.670219" stop-color="#BC7E20"/>
<stop offset="1" stop-color="#A74D01"/>
</linearGradient>
</defs>
</svg>
