<svg width="32" height="32" viewBox="0 0 32 32" fill="none" xmlns="http://www.w3.org/2000/svg">
<path d="M16.0477 5.34167C16.5159 5.34167 16.8955 5.72125 16.8955 6.18949V7.60238H25.091C26.3396 7.60238 27.3518 8.61458 27.3518 9.8632V22.0896C27.3518 23.3383 26.3396 24.3505 25.091 24.3505H9.54519C9.26977 24.3505 9.00383 24.451 8.7973 24.6332L6.15226 26.967C5.60482 27.45 4.74353 27.0613 4.74353 26.3313V9.8632C4.74353 8.61458 5.75574 7.60238 7.00436 7.60238H15.1999V6.18948C15.1999 5.72125 15.5794 5.34167 16.0477 5.34167ZM10.9608 15.5126C11.8973 15.5126 12.6564 14.7537 12.6564 13.8176C12.6564 12.8814 11.8973 12.1225 10.9608 12.1225C10.0243 12.1225 9.26518 12.8814 9.26518 13.8176C9.26518 14.7537 10.0243 15.5126 10.9608 15.5126ZM20.9709 15.5126C21.9073 15.5126 22.6665 14.7537 22.6665 13.8176C22.6665 12.8814 21.9073 12.1225 20.9709 12.1225C20.0344 12.1225 19.2753 12.8814 19.2753 13.8176C19.2753 14.7537 20.0344 15.5126 20.9709 15.5126ZM14.2566 17.9183C13.8668 17.6588 13.3405 17.7644 13.0811 18.1542C12.8216 18.544 12.9272 19.0703 13.317 19.3297C14.0114 19.7921 15.0111 20.037 16.0476 20.037C17.0842 20.037 18.0838 19.7921 18.7783 19.3297C19.168 19.0703 19.2736 18.544 19.0142 18.1542C18.7547 17.7644 18.2284 17.6588 17.8386 17.9183C17.502 18.1424 16.8601 18.3414 16.0476 18.3414C15.2352 18.3414 14.5932 18.1424 14.2566 17.9183Z" fill="white"/>
</svg>
