<svg width="32" height="32" viewBox="0 0 32 32" fill="none" xmlns="http://www.w3.org/2000/svg">
<path d="M11.9875 15.8723H19.7375" stroke="white" stroke-width="2" stroke-linecap="round" stroke-linejoin="round"/>
<path d="M11.9875 19.7473H19.7375" stroke="white" stroke-width="2" stroke-linecap="round" stroke-linejoin="round"/>
<path d="M7.1438 5.21606H24.5813C24.8382 5.21606 25.0846 5.31813 25.2663 5.4998C25.448 5.68148 25.55 5.92789 25.55 6.18481V24.5911C25.55 25.3618 25.2439 26.1011 24.6988 26.6461C24.1538 27.1911 23.4146 27.4973 22.6438 27.4973H9.0813C8.31051 27.4973 7.5713 27.1911 7.02627 26.6461C6.48124 26.1011 6.17505 25.3618 6.17505 24.5911V6.18481C6.17505 5.92789 6.27711 5.68148 6.45879 5.4998C6.64047 5.31813 6.88687 5.21606 7.1438 5.21606V5.21606Z" stroke="white" stroke-width="2" stroke-linecap="round" stroke-linejoin="round"/>
<path d="M10.05 3.27856V7.15356" stroke="white" stroke-width="2" stroke-linecap="round" stroke-linejoin="round"/>
<path d="M15.8625 3.27856V7.15356" stroke="white" stroke-width="2" stroke-linecap="round" stroke-linejoin="round"/>
<path d="M21.675 3.27856V7.15356" stroke="white" stroke-width="2" stroke-linecap="round" stroke-linejoin="round"/>
</svg>
