<svg width="32" height="32" viewBox="0 0 32 32" fill="none" xmlns="http://www.w3.org/2000/svg">
<path d="M6.48087 18.4153C8.39717 15.6566 9.52439 13.8793 10.3462 12.5659C7.18787 12.8452 4.16052 16.7756 4.16052 16.7756L6.2452 18.8603C6.3057 18.7062 6.38293 18.5565 6.48087 18.4153Z" fill="url(#paint0_linear_1_8667)"/>
<path d="M14.6199 27.237L16.7032 29.3204C16.7032 29.3204 20.633 26.293 20.9124 23.1345C19.5995 23.9561 17.823 25.083 15.0636 26.9999C14.924 27.0968 14.7752 27.1759 14.6199 27.237Z" fill="url(#paint1_linear_1_8667)"/>
<path d="M11.4513 26.1598C11.0937 26.3043 10.7422 26.4579 10.3758 26.5804C9.39706 26.9076 8.38905 27.1286 7.36705 27.2697C6.93866 27.3288 6.50631 27.3789 6.07323 27.4118C6.07735 27.3583 6.08132 27.3048 6.08585 27.2514C6.17521 26.21 6.33364 25.1739 6.58961 24.1599C6.71294 23.6705 6.87032 23.1947 7.03927 22.7196C7.14432 22.4242 7.27542 22.1416 7.40765 21.8589L7.17845 21.6298C6.6687 21.9723 6.22535 22.405 5.84913 22.8946C5.29215 23.6195 4.87468 24.4408 4.58281 25.3062C4.26926 26.2354 4.08228 27.2196 4.05317 28.2007C4.04904 28.3385 4.03958 28.4793 4.06093 28.6161C4.08843 28.7927 4.16599 28.9599 4.28252 29.0954C4.39785 29.2294 4.54965 29.3306 4.71787 29.3849C4.85907 29.4304 5.00109 29.4312 5.14755 29.4301C6.03813 29.4226 6.94254 29.2679 7.79503 29.0146C9.35419 28.5513 10.9282 27.6797 11.8508 26.3025L11.6278 26.0796C11.5693 26.1071 11.5107 26.134 11.4513 26.1598Z" fill="url(#paint2_linear_1_8667)"/>
<path d="M28.7945 4.68335C28.7945 4.68335 28.7944 4.68327 28.7942 4.68311C28.632 4.52094 28.4121 4.43011 28.1832 4.43011C28.1776 4.43011 28.1718 4.4302 28.1662 4.43028C25.3833 4.48487 18.5174 5.00542 14.8711 8.65219C13.2159 10.3076 12.6779 11.1693 11.4987 13.0577C10.6496 14.4173 9.48701 16.2796 7.3623 19.338C7.12364 19.6818 7.16513 20.1471 7.46104 20.4429L13.0355 26.0179C13.2028 26.1853 13.4243 26.2713 13.6472 26.2713C13.8186 26.2713 13.9908 26.2205 14.1402 26.1167C17.1995 23.9914 19.0609 22.8289 20.4199 21.98C22.308 20.8008 23.1698 20.2627 24.8253 18.6071C28.4781 14.9539 28.995 8.09184 29.0474 5.31107C29.052 5.07627 28.9606 4.84964 28.7945 4.68335ZM22.3395 15.2025C21.2172 16.3248 19.3978 16.3248 18.2756 15.2025C17.1531 14.0801 17.1533 12.2607 18.2757 11.1384C19.3978 10.016 21.2172 10.0158 22.3395 11.1381C23.4614 12.2605 23.4616 14.0803 22.3395 15.2025Z" fill="url(#paint3_linear_1_8667)"/>
<defs>
<linearGradient id="paint0_linear_1_8667" x1="3.93219" y1="5.14736" x2="15.0758" y2="7.68464" gradientUnits="userSpaceOnUse">
<stop stop-color="#FFE986" stop-opacity="0.88"/>
<stop offset="0.670219" stop-color="#BC7E20"/>
<stop offset="1" stop-color="#A74D01"/>
</linearGradient>
<linearGradient id="paint1_linear_1_8667" x1="14.3876" y1="15.8439" x2="25.6839" y2="18.5063" gradientUnits="userSpaceOnUse">
<stop stop-color="#FFE986" stop-opacity="0.88"/>
<stop offset="0.670219" stop-color="#BC7E20"/>
<stop offset="1" stop-color="#A74D01"/>
</linearGradient>
<linearGradient id="paint2_linear_1_8667" x1="3.75944" y1="12.4364" x2="17.7922" y2="15.6889" gradientUnits="userSpaceOnUse">
<stop stop-color="#FFE986" stop-opacity="0.88"/>
<stop offset="0.670219" stop-color="#BC7E20"/>
<stop offset="1" stop-color="#A74D01"/>
</linearGradient>
<linearGradient id="paint3_linear_1_8667" x1="6.4016" y1="-21.3113" x2="45.6778" y2="-12.2119" gradientUnits="userSpaceOnUse">
<stop stop-color="#FFE986" stop-opacity="0.88"/>
<stop offset="0.670219" stop-color="#BC7E20"/>
<stop offset="1" stop-color="#A74D01"/>
</linearGradient>
</defs>
</svg>
