<svg width="32" height="33" viewBox="0 0 32 33" fill="none" xmlns="http://www.w3.org/2000/svg">
<path d="M5.92664 23.2744V9.71191" stroke="white" stroke-width="2" stroke-linecap="round" stroke-linejoin="round"/>
<path d="M25.3016 9.71191V23.2744" stroke="white" stroke-width="2" stroke-linecap="round" stroke-linejoin="round"/>
<path d="M11.7391 16.4932V18.4307" stroke="white" stroke-width="2" stroke-linecap="round" stroke-linejoin="round"/>
<path d="M15.6141 15.5244V18.4307" stroke="white" stroke-width="2" stroke-linecap="round" stroke-linejoin="round"/>
<path d="M19.4891 14.5557V18.4307" stroke="white" stroke-width="2" stroke-linecap="round" stroke-linejoin="round"/>
<path d="M26.2704 5.83691H4.95789C4.42286 5.83691 3.98914 6.27064 3.98914 6.80566V8.74316C3.98914 9.27819 4.42286 9.71191 4.95789 9.71191H26.2704C26.8054 9.71191 27.2391 9.27819 27.2391 8.74316V6.80566C27.2391 6.27064 26.8054 5.83691 26.2704 5.83691Z" stroke="white" stroke-width="2" stroke-linecap="round" stroke-linejoin="round"/>
<path d="M15.6141 23.2744V27.1494" stroke="white" stroke-width="2" stroke-linecap="round" stroke-linejoin="round"/>
<path d="M15.6141 31.0244C16.6842 31.0244 17.5516 30.157 17.5516 29.0869C17.5516 28.0169 16.6842 27.1494 15.6141 27.1494C14.5441 27.1494 13.6766 28.0169 13.6766 29.0869C13.6766 30.157 14.5441 31.0244 15.6141 31.0244Z" stroke="white" stroke-width="2" stroke-linecap="round" stroke-linejoin="round"/>
<path d="M3.98914 23.2744H27.2391" stroke="white" stroke-width="2" stroke-linecap="round" stroke-linejoin="round"/>
</svg>
