<svg width="32" height="32" viewBox="0 0 32 32" fill="none" xmlns="http://www.w3.org/2000/svg">
<path d="M23.3289 24.6489V27.5552" stroke="white" stroke-width="2" stroke-linecap="round" stroke-linejoin="round"/>
<path d="M7.82886 24.6489V27.5552" stroke="white" stroke-width="2" stroke-linecap="round" stroke-linejoin="round"/>
<path d="M26.2351 6.24268H4.92261C4.38758 6.24268 3.95386 6.6764 3.95386 7.21143V23.6802C3.95386 24.2152 4.38758 24.6489 4.92261 24.6489H26.2351C26.7701 24.6489 27.2039 24.2152 27.2039 23.6802V7.21143C27.2039 6.6764 26.7701 6.24268 26.2351 6.24268Z" stroke="white" stroke-width="2" stroke-linecap="round" stroke-linejoin="round"/>
<path d="M18.4851 17.8677C19.5552 17.8677 20.4226 17.0002 20.4226 15.9302C20.4226 14.8601 19.5552 13.9927 18.4851 13.9927C17.4151 13.9927 16.5476 14.8601 16.5476 15.9302C16.5476 17.0002 17.4151 17.8677 18.4851 17.8677Z" fill="white"/>
<path d="M18.4851 15.9302H27.2039" stroke="white" stroke-width="2" stroke-linecap="round" stroke-linejoin="round"/>
<path d="M18.4851 20.7739C21.1602 20.7739 23.3289 18.6053 23.3289 15.9302C23.3289 13.255 21.1602 11.0864 18.4851 11.0864C15.81 11.0864 13.6414 13.255 13.6414 15.9302C13.6414 18.6053 15.81 20.7739 18.4851 20.7739Z" stroke="white" stroke-width="2" stroke-linecap="round" stroke-linejoin="round"/>
</svg>
