<svg width="167" height="59" viewBox="0 0 167 59" fill="none" xmlns="http://www.w3.org/2000/svg">
<rect x="12.5098" y="14.21" width="153.58" height="30.58" rx="15.29" fill="#151619" stroke="url(#paint0_angular_1_10894)" stroke-width="0.58"/>
<circle cx="29.7998" cy="29.5" r="5" fill="#A2ADB8"/>
<g filter="url(#filter0_d_1_10894)">
<circle cx="29.7996" cy="29.5" r="3.33333" fill="url(#paint1_radial_1_10894)"/>
</g>
<g filter="url(#filter1_f_1_10894)">
<mask id="mask0_1_10894" style="mask-type:alpha" maskUnits="userSpaceOnUse" x="26" y="26" width="8" height="7">
<path d="M33.1095 27.7566C33.1468 27.8078 33.1425 27.8652 33.0757 27.9279C32.9893 28.2959 32.8159 28.772 32.9509 29.0864C33.2433 29.7677 32.637 30.6047 32.4515 31.9478C32.2661 33.2909 31.1247 32.7362 28.3784 32.6291C25.632 32.522 26.6164 30.1278 26.7306 28.4927C26.8219 27.1847 27.6674 27.2924 28.0788 27.5098C27.8457 28.1813 27.4667 29.5594 27.8148 29.6996C28.25 29.8748 28.5781 30.5658 28.5068 30.9843C28.4354 31.4028 28.9419 30.7896 30.7681 31.2276C32.229 31.578 32.2375 30.6404 32.0592 30.1278C32.5514 29.7969 32.7939 29.0864 32.5157 29.0864C32.2932 29.0864 30.2782 28.8529 29.2986 28.7361C29.0323 28.5901 28.6195 28.337 29.0988 28.4927C29.698 28.6874 29.8906 28.7945 32.0592 28.2981C32.6575 28.1612 32.9602 28.0365 33.0757 27.9279C33.0899 27.8675 33.1018 27.81 33.1095 27.7566Z" fill="#F91B3F"/>
<path d="M29.7921 26.6375C29.0217 26.5908 29.2571 26.3326 29.4711 26.2093C29.0716 25.9465 27.3667 26.9685 28.2655 27.3675C29.1643 27.7665 31.5968 27.3772 31.6396 27.3675C31.6824 27.3578 32.6097 27.1728 32.3886 26.6375C32.1675 26.1023 31.4541 26.2093 31.3471 26.404C31.2401 26.5986 30.7551 26.6959 29.7921 26.6375Z" fill="#FCFC78"/>
</mask>
<g mask="url(#mask0_1_10894)">
<g filter="url(#filter2_f_1_10894)">
<circle cx="29.7996" cy="29.5" r="3.33333" fill="url(#paint2_radial_1_10894)"/>
</g>
</g>
</g>
<path d="M126.834 33.57C126.374 33.57 125.961 33.49 125.594 33.33C125.234 33.1633 124.951 32.9367 124.744 32.65C124.538 32.3567 124.431 32.02 124.424 31.64H125.394C125.428 31.9667 125.561 32.2433 125.794 32.47C126.034 32.69 126.381 32.8 126.834 32.8C127.268 32.8 127.608 32.6933 127.854 32.48C128.108 32.26 128.234 31.98 128.234 31.64C128.234 31.3733 128.161 31.1567 128.014 30.99C127.868 30.8233 127.684 30.6967 127.464 30.61C127.244 30.5233 126.948 30.43 126.574 30.33C126.114 30.21 125.744 30.09 125.464 29.97C125.191 29.85 124.954 29.6633 124.754 29.41C124.561 29.15 124.464 28.8033 124.464 28.37C124.464 27.99 124.561 27.6533 124.754 27.36C124.948 27.0667 125.218 26.84 125.564 26.68C125.918 26.52 126.321 26.44 126.774 26.44C127.428 26.44 127.961 26.6033 128.374 26.93C128.794 27.2567 129.031 27.69 129.084 28.23H128.084C128.051 27.9633 127.911 27.73 127.664 27.53C127.418 27.3233 127.091 27.22 126.684 27.22C126.304 27.22 125.994 27.32 125.754 27.52C125.514 27.7133 125.394 27.9867 125.394 28.34C125.394 28.5933 125.464 28.8 125.604 28.96C125.751 29.12 125.928 29.2433 126.134 29.33C126.348 29.41 126.644 29.5033 127.024 29.61C127.484 29.7367 127.854 29.8633 128.134 29.99C128.414 30.11 128.654 30.3 128.854 30.56C129.054 30.8133 129.154 31.16 129.154 31.6C129.154 31.94 129.064 32.26 128.884 32.56C128.704 32.86 128.438 33.1033 128.084 33.29C127.731 33.4767 127.314 33.57 126.834 33.57ZM133.554 33.5L131.404 31.08V33.5H130.494V26.1H131.404V30.45L133.514 28.02H134.784L132.204 30.75L134.794 33.5H133.554ZM140.36 28.02L137.06 36.08H136.12L137.2 33.44L134.99 28.02H136L137.72 32.46L139.42 28.02H140.36ZM143.945 27.92C144.612 27.92 145.152 28.1233 145.565 28.53C145.978 28.93 146.185 29.51 146.185 30.27V33.5H145.285V30.4C145.285 29.8533 145.148 29.4367 144.875 29.15C144.602 28.8567 144.228 28.71 143.755 28.71C143.275 28.71 142.892 28.86 142.605 29.16C142.325 29.46 142.185 29.8967 142.185 30.47V33.5H141.275V28.02H142.185V28.8C142.365 28.52 142.608 28.3033 142.915 28.15C143.228 27.9967 143.572 27.92 143.945 27.92ZM152.671 30.55C152.671 30.7233 152.661 30.9067 152.641 31.1H148.261C148.295 31.64 148.478 32.0633 148.811 32.37C149.151 32.67 149.561 32.82 150.041 32.82C150.435 32.82 150.761 32.73 151.021 32.55C151.288 32.3633 151.475 32.1167 151.581 31.81H152.561C152.415 32.3367 152.121 32.7667 151.681 33.1C151.241 33.4267 150.695 33.59 150.041 33.59C149.521 33.59 149.055 33.4733 148.641 33.24C148.235 33.0067 147.915 32.6767 147.681 32.25C147.448 31.8167 147.331 31.3167 147.331 30.75C147.331 30.1833 147.445 29.6867 147.671 29.26C147.898 28.8333 148.215 28.5067 148.621 28.28C149.035 28.0467 149.508 27.93 150.041 27.93C150.561 27.93 151.021 28.0433 151.421 28.27C151.821 28.4967 152.128 28.81 152.341 29.21C152.561 29.6033 152.671 30.05 152.671 30.55ZM151.731 30.36C151.731 30.0133 151.655 29.7167 151.501 29.47C151.348 29.2167 151.138 29.0267 150.871 28.9C150.611 28.7667 150.321 28.7 150.001 28.7C149.541 28.7 149.148 28.8467 148.821 29.14C148.501 29.4333 148.318 29.84 148.271 30.36H151.731ZM154.983 28.77V32C154.983 32.2667 155.039 32.4567 155.153 32.57C155.266 32.6767 155.463 32.73 155.743 32.73H156.413V33.5H155.593C155.086 33.5 154.706 33.3833 154.453 33.15C154.199 32.9167 154.073 32.5333 154.073 32V28.77H153.363V28.02H154.073V26.64H154.983V28.02H156.413V28.77H154.983Z" fill="url(#paint3_linear_1_10894)"/>
<path d="M126.834 33.57C126.374 33.57 125.961 33.49 125.594 33.33C125.234 33.1633 124.951 32.9367 124.744 32.65C124.538 32.3567 124.431 32.02 124.424 31.64H125.394C125.428 31.9667 125.561 32.2433 125.794 32.47C126.034 32.69 126.381 32.8 126.834 32.8C127.268 32.8 127.608 32.6933 127.854 32.48C128.108 32.26 128.234 31.98 128.234 31.64C128.234 31.3733 128.161 31.1567 128.014 30.99C127.868 30.8233 127.684 30.6967 127.464 30.61C127.244 30.5233 126.948 30.43 126.574 30.33C126.114 30.21 125.744 30.09 125.464 29.97C125.191 29.85 124.954 29.6633 124.754 29.41C124.561 29.15 124.464 28.8033 124.464 28.37C124.464 27.99 124.561 27.6533 124.754 27.36C124.948 27.0667 125.218 26.84 125.564 26.68C125.918 26.52 126.321 26.44 126.774 26.44C127.428 26.44 127.961 26.6033 128.374 26.93C128.794 27.2567 129.031 27.69 129.084 28.23H128.084C128.051 27.9633 127.911 27.73 127.664 27.53C127.418 27.3233 127.091 27.22 126.684 27.22C126.304 27.22 125.994 27.32 125.754 27.52C125.514 27.7133 125.394 27.9867 125.394 28.34C125.394 28.5933 125.464 28.8 125.604 28.96C125.751 29.12 125.928 29.2433 126.134 29.33C126.348 29.41 126.644 29.5033 127.024 29.61C127.484 29.7367 127.854 29.8633 128.134 29.99C128.414 30.11 128.654 30.3 128.854 30.56C129.054 30.8133 129.154 31.16 129.154 31.6C129.154 31.94 129.064 32.26 128.884 32.56C128.704 32.86 128.438 33.1033 128.084 33.29C127.731 33.4767 127.314 33.57 126.834 33.57ZM133.554 33.5L131.404 31.08V33.5H130.494V26.1H131.404V30.45L133.514 28.02H134.784L132.204 30.75L134.794 33.5H133.554ZM140.36 28.02L137.06 36.08H136.12L137.2 33.44L134.99 28.02H136L137.72 32.46L139.42 28.02H140.36ZM143.945 27.92C144.612 27.92 145.152 28.1233 145.565 28.53C145.978 28.93 146.185 29.51 146.185 30.27V33.5H145.285V30.4C145.285 29.8533 145.148 29.4367 144.875 29.15C144.602 28.8567 144.228 28.71 143.755 28.71C143.275 28.71 142.892 28.86 142.605 29.16C142.325 29.46 142.185 29.8967 142.185 30.47V33.5H141.275V28.02H142.185V28.8C142.365 28.52 142.608 28.3033 142.915 28.15C143.228 27.9967 143.572 27.92 143.945 27.92ZM152.671 30.55C152.671 30.7233 152.661 30.9067 152.641 31.1H148.261C148.295 31.64 148.478 32.0633 148.811 32.37C149.151 32.67 149.561 32.82 150.041 32.82C150.435 32.82 150.761 32.73 151.021 32.55C151.288 32.3633 151.475 32.1167 151.581 31.81H152.561C152.415 32.3367 152.121 32.7667 151.681 33.1C151.241 33.4267 150.695 33.59 150.041 33.59C149.521 33.59 149.055 33.4733 148.641 33.24C148.235 33.0067 147.915 32.6767 147.681 32.25C147.448 31.8167 147.331 31.3167 147.331 30.75C147.331 30.1833 147.445 29.6867 147.671 29.26C147.898 28.8333 148.215 28.5067 148.621 28.28C149.035 28.0467 149.508 27.93 150.041 27.93C150.561 27.93 151.021 28.0433 151.421 28.27C151.821 28.4967 152.128 28.81 152.341 29.21C152.561 29.6033 152.671 30.05 152.671 30.55ZM151.731 30.36C151.731 30.0133 151.655 29.7167 151.501 29.47C151.348 29.2167 151.138 29.0267 150.871 28.9C150.611 28.7667 150.321 28.7 150.001 28.7C149.541 28.7 149.148 28.8467 148.821 29.14C148.501 29.4333 148.318 29.84 148.271 30.36H151.731ZM154.983 28.77V32C154.983 32.2667 155.039 32.4567 155.153 32.57C155.266 32.6767 155.463 32.73 155.743 32.73H156.413V33.5H155.593C155.086 33.5 154.706 33.3833 154.453 33.15C154.199 32.9167 154.073 32.5333 154.073 32V28.77H153.363V28.02H154.073V26.64H154.983V28.02H156.413V28.77H154.983Z" fill="#AEAEAE" fill-opacity="0.05"/>
<path fill-rule="evenodd" clip-rule="evenodd" d="M67.0653 27.2761H61.847C61.7568 27.2766 61.6703 27.3162 61.6067 27.3862C61.5429 27.4561 61.5068 27.5509 61.5064 27.6498V32.2466C61.5069 32.3454 61.543 32.4402 61.6068 32.5101C61.6705 32.58 61.7568 32.6197 61.847 32.6204H67.0653V33.3989H61.847C61.7092 33.3996 61.5728 33.3704 61.4455 33.3129C61.3182 33.2553 61.2025 33.1708 61.1052 33.064C61.0077 32.957 60.9307 32.8301 60.8783 32.6904C60.8258 32.5506 60.7992 32.4009 60.7998 32.2498V27.6532C60.7992 27.502 60.8258 27.3522 60.8783 27.2125C60.9307 27.0728 61.0077 26.9458 61.1052 26.839C61.2025 26.7321 61.3182 26.6475 61.4455 26.59C61.5728 26.5325 61.7092 26.5032 61.847 26.5039H67.0653V27.2761ZM76.8639 26.5V27.2787H71.8383V29.5543H75.8776V30.3395H71.8378V32.619H76.8633V33.3977H71.1282V26.5H76.8639Z" fill="white"/>
<path d="M87.2131 27.6589V29.6796C87.214 29.8306 87.1872 29.9803 87.1346 30.1201C87.0819 30.2597 87.0052 30.3866 86.9076 30.4934C86.8105 30.6004 86.6947 30.6849 86.5674 30.7425C86.4401 30.8 86.3035 30.8294 86.1661 30.8287H85.2066L87.1782 33.395H86.2446L84.2814 30.8287H81.9754C81.8614 30.8224 81.7476 30.8097 81.6348 30.7905V33.395H80.9253V26.5098H86.1607C86.2984 26.5091 86.4346 26.5385 86.5619 26.596C86.6896 26.6535 86.805 26.7381 86.9026 26.845C86.9997 26.9518 87.0768 27.0788 87.1291 27.2184C87.1817 27.3582 87.2085 27.5079 87.208 27.6589H87.2131ZM81.9777 30.0435H86.1661C86.2098 30.0442 86.2531 30.0353 86.2938 30.0171C86.3341 29.999 86.371 29.9723 86.402 29.9383C86.433 29.9044 86.4571 29.8641 86.4737 29.8195C86.4902 29.7752 86.4983 29.7274 86.4979 29.6796V27.6589C86.4983 27.6103 86.4902 27.5619 86.474 27.5167C86.4576 27.4715 86.433 27.4303 86.402 27.3955C86.3719 27.3599 86.3354 27.3316 86.2946 27.3126C86.2539 27.2935 86.2098 27.2843 86.1656 27.2851H81.9772C81.887 27.2857 81.8007 27.3252 81.7369 27.3952C81.6731 27.4652 81.637 27.5599 81.6366 27.6589V29.6796C81.6356 29.7281 81.6442 29.7764 81.6615 29.8211C81.6789 29.8659 81.7046 29.9061 81.7371 29.9391C81.7689 29.9733 81.8065 30 81.8479 30.0179C81.8892 30.036 81.9333 30.0446 81.9777 30.0435Z" fill="white"/>
<path fill-rule="evenodd" clip-rule="evenodd" d="M90.9648 26.5H97.245V27.2787H94.4663V33.3983H93.7566V27.2787H90.9648V26.5ZM101.051 33.395V26.5H101.761V33.395H101.051ZM111.191 26.5H112.098L109.472 29.9475L112.107 33.395H111.191L108.852 30.3402H106.828V33.395H106.114V26.5H106.829V29.5543H108.854L111.191 26.5Z" fill="white"/>
<path fill-rule="evenodd" clip-rule="evenodd" d="M56.0152 23.9427L56.0958 24.4498C56.1593 24.9216 56.1888 25.3977 56.1839 25.874C56.1834 26.9267 56.0613 27.9754 55.8202 28.9979C55.494 30.3867 54.9261 31.7019 54.1444 32.8781C53.2411 34.2289 51.9349 35.5576 50.0311 36.6252L49.7982 36.7556L49.5653 36.6252C47.6615 35.5576 46.3559 34.2289 45.452 32.8781C44.6703 31.7019 44.1024 30.3867 43.7763 28.9979C43.5352 27.9756 43.4131 26.9271 43.4125 25.8746C43.4076 25.3982 43.437 24.9222 43.5006 24.4504L43.5813 23.9433C43.5882 23.9019 43.5871 23.8596 43.5782 23.8186C43.5693 23.7777 43.5526 23.739 43.5292 23.7048C43.5059 23.6706 43.4762 23.6415 43.442 23.6193C43.4077 23.597 43.3696 23.582 43.3298 23.5752C43.29 23.5683 43.2492 23.5698 43.2099 23.5793C43.1706 23.5889 43.1336 23.6065 43.1008 23.6311C43.0681 23.6556 43.0404 23.6867 43.0192 23.7224C42.9981 23.7582 42.984 23.798 42.9777 23.8394L42.897 24.3465C42.8276 24.8526 42.7953 25.3634 42.8003 25.8746C42.8007 26.9789 42.9288 28.0792 43.1817 29.1517C43.5261 30.6163 44.1255 32.0031 44.9504 33.2431C45.904 34.67 47.287 36.073 49.2774 37.1867L49.6556 37.3983C49.7001 37.4234 49.75 37.4365 49.8006 37.4365C49.8512 37.4365 49.9011 37.4234 49.9456 37.3983L50.3233 37.1867C52.3116 36.0725 53.6951 34.67 54.6503 33.2431C55.4748 32.0031 56.0738 30.6166 56.4178 29.1522C56.6709 28.0796 56.7989 26.9794 56.7993 25.8751C56.8044 25.364 56.772 24.8532 56.7026 24.3471L56.6219 23.84C56.6157 23.7985 56.6015 23.7588 56.5804 23.723C56.5592 23.6873 56.5316 23.6562 56.4988 23.6316C56.4661 23.6071 56.429 23.5895 56.3897 23.5799C56.3504 23.5703 56.3096 23.5689 56.2698 23.5757C56.23 23.5826 56.1918 23.5976 56.1576 23.6198C56.1234 23.6421 56.0938 23.6711 56.0704 23.7054C56.047 23.7396 56.0304 23.7783 56.0214 23.8192C56.0125 23.8601 56.0115 23.9025 56.0184 23.9438L56.0152 23.9427Z" fill="white"/>
<path fill-rule="evenodd" clip-rule="evenodd" d="M45.2535 23.5973L49.7996 22.1532L54.4473 23.6284C54.5251 23.6526 54.609 23.6438 54.6805 23.6038C54.752 23.5639 54.8054 23.4961 54.829 23.4153C54.8526 23.3345 54.8444 23.2473 54.8064 23.1727C54.7682 23.0982 54.7032 23.0423 54.6257 23.0175L49.8888 21.5139C49.8307 21.4954 49.7685 21.4954 49.7104 21.5139L45.0746 22.9852C45.0358 22.9973 44.9998 23.0172 44.9684 23.0437C44.9371 23.0703 44.9111 23.1031 44.892 23.1401C44.8729 23.1771 44.861 23.2178 44.857 23.2596C44.853 23.3014 44.857 23.3437 44.8687 23.3839C44.8805 23.4241 44.8997 23.4615 44.9254 23.494C44.9511 23.5265 44.9827 23.5533 45.0184 23.5731C45.0541 23.5928 45.0932 23.605 45.1335 23.609C45.1737 23.6129 45.2144 23.6086 45.253 23.5962L45.2535 23.5973Z" fill="white"/>
<path fill-rule="evenodd" clip-rule="evenodd" d="M43.0079 24.0361L49.5255 37.2623C49.5509 37.3141 49.5895 37.3574 49.637 37.388C49.6845 37.4186 49.7391 37.435 49.7949 37.4354C49.8507 37.4359 49.9056 37.4206 49.9536 37.391C50.0016 37.3613 50.0409 37.3185 50.0672 37.2673L54.0419 29.5383L54.0477 29.5261L56.5917 24.0272C56.6262 23.9513 56.6304 23.8644 56.6036 23.7852C56.5767 23.7061 56.521 23.6411 56.4484 23.6046C56.3756 23.568 56.2921 23.5627 56.2157 23.5898C56.1393 23.6169 56.0763 23.6743 56.0404 23.7495L53.5007 29.2439L49.807 36.4313L43.5523 23.7451C43.5343 23.7074 43.5093 23.6738 43.4787 23.6463C43.4481 23.6188 43.4125 23.5978 43.3741 23.5847C43.3356 23.5715 43.2951 23.5664 43.2547 23.5697C43.2144 23.573 43.1751 23.5845 43.1391 23.6037C43.103 23.6229 43.071 23.6493 43.0449 23.6814C43.0188 23.7136 42.9991 23.7508 42.9869 23.7909C42.9747 23.831 42.9703 23.8732 42.9739 23.9151C42.9775 23.9571 42.9891 23.9978 43.0079 24.035V24.0361Z" fill="white"/>
<path fill-rule="evenodd" clip-rule="evenodd" d="M46.4611 29.6846H53.7088C53.7899 29.6846 53.8677 29.6511 53.925 29.5914C53.9824 29.5318 54.0146 29.451 54.0146 29.3665C54.0146 29.2823 53.9824 29.2014 53.925 29.1417C53.8677 29.0821 53.7899 29.0486 53.7088 29.0486H46.4611C46.38 29.0486 46.3022 29.0821 46.2449 29.1417C46.1875 29.2014 46.1553 29.2823 46.1553 29.3665C46.1553 29.451 46.1875 29.5318 46.2449 29.5914C46.3022 29.6511 46.38 29.6846 46.4611 29.6846Z" fill="white"/>
<path d="M117.8 35.5V23.5" stroke="url(#paint4_angular_1_10894)" stroke-width="0.68" stroke-linecap="round"/>
<path d="M117.8 35.5V23.5" stroke="white" stroke-opacity="0.2" stroke-width="0.68" stroke-linecap="round"/>
<defs>
<filter id="filter0_d_1_10894" x="0.466309" y="0.166687" width="58.6665" height="58.6667" filterUnits="userSpaceOnUse" color-interpolation-filters="sRGB">
<feFlood flood-opacity="0" result="BackgroundImageFix"/>
<feColorMatrix in="SourceAlpha" type="matrix" values="0 0 0 0 0 0 0 0 0 0 0 0 0 0 0 0 0 0 127 0" result="hardAlpha"/>
<feMorphology radius="2" operator="dilate" in="SourceAlpha" result="effect1_dropShadow_1_10894"/>
<feOffset/>
<feGaussianBlur stdDeviation="12"/>
<feComposite in2="hardAlpha" operator="out"/>
<feColorMatrix type="matrix" values="0 0 0 0 0.952941 0 0 0 0 0.376471 0 0 0 0 0.129412 0 0 0 1 0"/>
<feBlend mode="normal" in2="BackgroundImageFix" result="effect1_dropShadow_1_10894"/>
<feBlend mode="normal" in="SourceGraphic" in2="effect1_dropShadow_1_10894" result="shape"/>
</filter>
<filter id="filter1_f_1_10894" x="6.46631" y="6.16669" width="46.6665" height="46.6666" filterUnits="userSpaceOnUse" color-interpolation-filters="sRGB">
<feFlood flood-opacity="0" result="BackgroundImageFix"/>
<feBlend mode="normal" in="SourceGraphic" in2="BackgroundImageFix" result="shape"/>
<feGaussianBlur stdDeviation="10" result="effect1_foregroundBlur_1_10894"/>
</filter>
<filter id="filter2_f_1_10894" x="22.4663" y="22.1667" width="14.6665" height="14.6667" filterUnits="userSpaceOnUse" color-interpolation-filters="sRGB">
<feFlood flood-opacity="0" result="BackgroundImageFix"/>
<feBlend mode="normal" in="SourceGraphic" in2="BackgroundImageFix" result="shape"/>
<feGaussianBlur stdDeviation="2" result="effect1_foregroundBlur_1_10894"/>
</filter>
<radialGradient id="paint0_angular_1_10894" cx="0" cy="0" r="1" gradientUnits="userSpaceOnUse" gradientTransform="translate(87.0048 29.5) rotate(90) scale(15 74.205)">
<stop offset="0.0729167" stop-color="#E3A455"/>
<stop offset="0.244792" stop-color="#F6DBA6"/>
<stop offset="0.752631" stop-color="#FFEBC4"/>
<stop offset="0.781661" stop-color="#F0BE79"/>
<stop offset="0.799951" stop-color="#8F653B"/>
<stop offset="0.850033" stop-color="#BA7F3B"/>
<stop offset="0.911287" stop-color="#EEBC70"/>
<stop offset="0.925707" stop-color="#B3874F"/>
</radialGradient>
<radialGradient id="paint1_radial_1_10894" cx="0" cy="0" r="1" gradientUnits="userSpaceOnUse" gradientTransform="translate(29.6296 26.6769) rotate(53.3659) scale(4.95923)">
<stop offset="0.177352" stop-color="white"/>
<stop offset="0.507534" stop-color="#8EFF1D"/>
<stop offset="1" stop-color="#6CEF05"/>
</radialGradient>
<radialGradient id="paint2_radial_1_10894" cx="0" cy="0" r="1" gradientUnits="userSpaceOnUse" gradientTransform="translate(29.5615 26.3027) rotate(84.4725) scale(5.29674)">
<stop stop-color="white"/>
<stop offset="0.208685" stop-color="#A8FB81"/>
<stop offset="1" stop-color="#6BF516"/>
</radialGradient>
<linearGradient id="paint3_linear_1_10894" x1="155.489" y1="34.4294" x2="154.733" y2="22.665" gradientUnits="userSpaceOnUse">
<stop stop-color="#FFD79F"/>
<stop offset="1" stop-color="#85663E"/>
</linearGradient>
<radialGradient id="paint4_angular_1_10894" cx="0" cy="0" r="1" gradientUnits="userSpaceOnUse" gradientTransform="translate(117.315 29.5) rotate(-90) scale(6 0.485)">
<stop offset="0.0729167" stop-color="#E3A455"/>
<stop offset="0.244792" stop-color="#F6DBA6"/>
<stop offset="0.752631" stop-color="#FFEBC4"/>
<stop offset="0.781661" stop-color="#F0BE79"/>
<stop offset="0.799951" stop-color="#8F653B"/>
<stop offset="0.821649" stop-color="#673D22"/>
<stop offset="0.850033" stop-color="#BA7F3B"/>
<stop offset="0.911287" stop-color="#EEBC70"/>
<stop offset="0.925707" stop-color="#B3874F"/>
<stop offset="0.948982" stop-color="#3F1F0F"/>
</radialGradient>
</defs>
</svg>
