<svg width="36" height="37" viewBox="0 0 36 37" fill="none" xmlns="http://www.w3.org/2000/svg">
<path d="M21.7173 30.2916L21.7663 30.2761L22.1207 30.1641C23.363 29.7712 24.536 29.181 25.5958 28.4154L25.5959 28.4154C26.6458 27.6582 27.5731 26.7399 28.3444 25.6936C29.7152 23.831 30.548 21.6188 30.7495 19.304C30.951 16.9892 30.5133 14.6633 29.4853 12.5862C28.4574 10.5091 26.8798 8.76279 24.9291 7.54219C22.9784 6.32161 20.7313 5.67472 18.439 5.67361L21.7173 30.2916ZM21.7173 30.2916L21.6881 30.3339M21.7173 30.2916L21.6881 30.3339M21.6881 30.3339L21.4752 30.642L18.7563 34.5771C18.7197 34.6299 18.6713 34.6729 18.6152 34.7025C18.5592 34.732 18.497 34.7474 18.434 34.7474C18.371 34.7474 18.3088 34.732 18.2527 34.7025C18.1966 34.6729 18.1482 34.6299 18.1117 34.5771L17.9883 34.6623M21.6881 30.3339L17.9883 34.6623M17.9883 34.6623L18.1117 34.5771L15.3928 30.642L15.1799 30.3339L15.1507 30.2916M17.9883 34.6623L15.1507 30.2916M15.1507 30.2916L15.1017 30.2761M15.1507 30.2916L15.1017 30.2761M15.1017 30.2761L14.7474 30.1641M15.1017 30.2761L14.7474 30.1641M14.7474 30.1641C11.9272 29.27 9.51586 27.3818 7.95052 24.8412C6.38515 22.3006 5.76951 19.2756 6.21541 16.3145C6.66131 13.3533 8.13915 10.6523 10.3807 8.70044C12.6222 6.74867 15.4791 5.67505 18.434 5.67361C18.4341 5.67361 18.4341 5.67361 18.4341 5.67361H18.4389L14.7474 30.1641ZM18.4394 4.27114H18.4394H18.434C10.8568 4.27114 4.68249 10.5292 4.68252 18.202C4.68253 24.4296 8.71656 29.7037 14.2837 31.4869L16.9735 35.3798C17.1376 35.6174 17.356 35.8116 17.6103 35.9457C17.8645 36.0798 18.1471 36.1499 18.434 36.1499C18.7209 36.1499 19.0034 36.0798 19.2577 35.9457C19.512 35.8116 19.7303 35.6174 19.8945 35.3798L22.5843 31.4869C28.1514 29.7037 32.1855 24.4296 32.1855 18.202C32.1855 10.5119 26.0335 4.27412 18.4394 4.27114Z" fill="url(#paint0_linear_1_10929)"/>
<path d="M21.7173 30.2916L21.7663 30.2761L22.1207 30.1641C23.363 29.7712 24.536 29.181 25.5958 28.4154L25.5959 28.4154C26.6458 27.6582 27.5731 26.7399 28.3444 25.6936C29.7152 23.831 30.548 21.6188 30.7495 19.304C30.951 16.9892 30.5133 14.6633 29.4853 12.5862C28.4574 10.5091 26.8798 8.76279 24.9291 7.54219C22.9784 6.32161 20.7313 5.67472 18.439 5.67361L21.7173 30.2916ZM21.7173 30.2916L21.6881 30.3339M21.7173 30.2916L21.6881 30.3339M21.6881 30.3339L21.4752 30.642L18.7563 34.5771C18.7197 34.6299 18.6713 34.6729 18.6152 34.7025C18.5592 34.732 18.497 34.7474 18.434 34.7474C18.371 34.7474 18.3088 34.732 18.2527 34.7025C18.1966 34.6729 18.1482 34.6299 18.1117 34.5771L17.9883 34.6623M21.6881 30.3339L17.9883 34.6623M17.9883 34.6623L18.1117 34.5771L15.3928 30.642L15.1799 30.3339L15.1507 30.2916M17.9883 34.6623L15.1507 30.2916M15.1507 30.2916L15.1017 30.2761M15.1507 30.2916L15.1017 30.2761M15.1017 30.2761L14.7474 30.1641M15.1017 30.2761L14.7474 30.1641M14.7474 30.1641C11.9272 29.27 9.51586 27.3818 7.95052 24.8412C6.38515 22.3006 5.76951 19.2756 6.21541 16.3145C6.66131 13.3533 8.13915 10.6523 10.3807 8.70044C12.6222 6.74867 15.4791 5.67505 18.434 5.67361C18.4341 5.67361 18.4341 5.67361 18.4341 5.67361H18.4389L14.7474 30.1641ZM18.4394 4.27114H18.4394H18.434C10.8568 4.27114 4.68249 10.5292 4.68252 18.202C4.68253 24.4296 8.71656 29.7037 14.2837 31.4869L16.9735 35.3798C17.1376 35.6174 17.356 35.8116 17.6103 35.9457C17.8645 36.0798 18.1471 36.1499 18.434 36.1499C18.7209 36.1499 19.0034 36.0798 19.2577 35.9457C19.512 35.8116 19.7303 35.6174 19.8945 35.3798L22.5843 31.4869C28.1514 29.7037 32.1855 24.4296 32.1855 18.202C32.1855 10.5119 26.0335 4.27412 18.4394 4.27114Z" fill="#D1D2D7" fill-opacity="0.3"/>
<path d="M21.7173 30.2916L21.7663 30.2761L22.1207 30.1641C23.363 29.7712 24.536 29.181 25.5958 28.4154L25.5959 28.4154C26.6458 27.6582 27.5731 26.7399 28.3444 25.6936C29.7152 23.831 30.548 21.6188 30.7495 19.304C30.951 16.9892 30.5133 14.6633 29.4853 12.5862C28.4574 10.5091 26.8798 8.76279 24.9291 7.54219C22.9784 6.32161 20.7313 5.67472 18.439 5.67361L21.7173 30.2916ZM21.7173 30.2916L21.6881 30.3339M21.7173 30.2916L21.6881 30.3339M21.6881 30.3339L21.4752 30.642L18.7563 34.5771C18.7197 34.6299 18.6713 34.6729 18.6152 34.7025C18.5592 34.732 18.497 34.7474 18.434 34.7474C18.371 34.7474 18.3088 34.732 18.2527 34.7025C18.1966 34.6729 18.1482 34.6299 18.1117 34.5771L17.9883 34.6623M21.6881 30.3339L17.9883 34.6623M17.9883 34.6623L18.1117 34.5771L15.3928 30.642L15.1799 30.3339L15.1507 30.2916M17.9883 34.6623L15.1507 30.2916M15.1507 30.2916L15.1017 30.2761M15.1507 30.2916L15.1017 30.2761M15.1017 30.2761L14.7474 30.1641M15.1017 30.2761L14.7474 30.1641M14.7474 30.1641C11.9272 29.27 9.51586 27.3818 7.95052 24.8412C6.38515 22.3006 5.76951 19.2756 6.21541 16.3145C6.66131 13.3533 8.13915 10.6523 10.3807 8.70044C12.6222 6.74867 15.4791 5.67505 18.434 5.67361C18.4341 5.67361 18.4341 5.67361 18.4341 5.67361H18.4389L14.7474 30.1641ZM18.4394 4.27114H18.4394H18.434C10.8568 4.27114 4.68249 10.5292 4.68252 18.202C4.68253 24.4296 8.71656 29.7037 14.2837 31.4869L16.9735 35.3798C17.1376 35.6174 17.356 35.8116 17.6103 35.9457C17.8645 36.0798 18.1471 36.1499 18.434 36.1499C18.7209 36.1499 19.0034 36.0798 19.2577 35.9457C19.512 35.8116 19.7303 35.6174 19.8945 35.3798L22.5843 31.4869C28.1514 29.7037 32.1855 24.4296 32.1855 18.202C32.1855 10.5119 26.0335 4.27412 18.4394 4.27114Z" stroke="url(#paint1_linear_1_10929)" stroke-width="0.3"/>
<path d="M21.7173 30.2916L21.7663 30.2761L22.1207 30.1641C23.363 29.7712 24.536 29.181 25.5958 28.4154L25.5959 28.4154C26.6458 27.6582 27.5731 26.7399 28.3444 25.6936C29.7152 23.831 30.548 21.6188 30.7495 19.304C30.951 16.9892 30.5133 14.6633 29.4853 12.5862C28.4574 10.5091 26.8798 8.76279 24.9291 7.54219C22.9784 6.32161 20.7313 5.67472 18.439 5.67361L21.7173 30.2916ZM21.7173 30.2916L21.6881 30.3339M21.7173 30.2916L21.6881 30.3339M21.6881 30.3339L21.4752 30.642L18.7563 34.5771C18.7197 34.6299 18.6713 34.6729 18.6152 34.7025C18.5592 34.732 18.497 34.7474 18.434 34.7474C18.371 34.7474 18.3088 34.732 18.2527 34.7025C18.1966 34.6729 18.1482 34.6299 18.1117 34.5771L17.9883 34.6623M21.6881 30.3339L17.9883 34.6623M17.9883 34.6623L18.1117 34.5771L15.3928 30.642L15.1799 30.3339L15.1507 30.2916M17.9883 34.6623L15.1507 30.2916M15.1507 30.2916L15.1017 30.2761M15.1507 30.2916L15.1017 30.2761M15.1017 30.2761L14.7474 30.1641M15.1017 30.2761L14.7474 30.1641M14.7474 30.1641C11.9272 29.27 9.51586 27.3818 7.95052 24.8412C6.38515 22.3006 5.76951 19.2756 6.21541 16.3145C6.66131 13.3533 8.13915 10.6523 10.3807 8.70044C12.6222 6.74867 15.4791 5.67505 18.434 5.67361C18.4341 5.67361 18.4341 5.67361 18.4341 5.67361H18.4389L14.7474 30.1641ZM18.4394 4.27114H18.4394H18.434C10.8568 4.27114 4.68249 10.5292 4.68252 18.202C4.68253 24.4296 8.71656 29.7037 14.2837 31.4869L16.9735 35.3798C17.1376 35.6174 17.356 35.8116 17.6103 35.9457C17.8645 36.0798 18.1471 36.1499 18.434 36.1499C18.7209 36.1499 19.0034 36.0798 19.2577 35.9457C19.512 35.8116 19.7303 35.6174 19.8945 35.3798L22.5843 31.4869C28.1514 29.7037 32.1855 24.4296 32.1855 18.202C32.1855 10.5119 26.0335 4.27412 18.4394 4.27114Z" stroke="#D1D2D7" stroke-opacity="0.3" stroke-width="0.3"/>
<path d="M25.8278 32.1052L25.741 32.1525L25.7872 32.2398L26.3015 33.2114L26.3899 33.1646L26.4377 33.2524C27.9072 32.4524 29.2526 31.438 30.4309 30.2416C33.635 26.9952 35.3996 22.6787 35.3996 18.0882C35.3996 13.4977 33.635 9.18121 30.4309 5.93476L30.3597 6.005L30.4309 5.93475C27.2266 2.68834 22.9657 0.9 18.4337 0.9C13.9018 0.9 9.64083 2.68834 6.43662 5.93475C3.23245 9.18115 1.46787 13.4977 1.46787 18.0882C1.4674 19.3397 1.60039 20.5875 1.86452 21.81L1.88607 21.9097L1.98536 21.8862L2.94382 21.6587L3.03924 21.6361L3.01846 21.5402C2.99423 21.4285 2.99426 21.3122 2.99629 21.1837C2.99642 21.1759 2.99655 21.1681 2.99668 21.1602C2.99866 21.0416 3.00082 20.9123 2.97934 20.784C2.83055 19.8933 2.75584 18.9916 2.756 18.0883C2.756 13.8444 4.38695 9.85528 7.34839 6.85484C10.3097 3.85441 14.2463 2.20247 18.4337 2.20247C22.6212 2.20247 26.5577 3.85441 29.5191 6.85483C32.4805 9.85531 34.1114 13.8444 34.1114 18.0882C34.1114 22.3321 32.4805 26.3212 29.5191 29.3216L29.519 29.3217C28.4298 30.4278 27.1861 31.3656 25.8278 32.1052Z" fill="url(#paint2_linear_1_10929)"/>
<path d="M25.8278 32.1052L25.741 32.1525L25.7872 32.2398L26.3015 33.2114L26.3899 33.1646L26.4377 33.2524C27.9072 32.4524 29.2526 31.438 30.4309 30.2416C33.635 26.9952 35.3996 22.6787 35.3996 18.0882C35.3996 13.4977 33.635 9.18121 30.4309 5.93476L30.3597 6.005L30.4309 5.93475C27.2266 2.68834 22.9657 0.9 18.4337 0.9C13.9018 0.9 9.64083 2.68834 6.43662 5.93475C3.23245 9.18115 1.46787 13.4977 1.46787 18.0882C1.4674 19.3397 1.60039 20.5875 1.86452 21.81L1.88607 21.9097L1.98536 21.8862L2.94382 21.6587L3.03924 21.6361L3.01846 21.5402C2.99423 21.4285 2.99426 21.3122 2.99629 21.1837C2.99642 21.1759 2.99655 21.1681 2.99668 21.1602C2.99866 21.0416 3.00082 20.9123 2.97934 20.784C2.83055 19.8933 2.75584 18.9916 2.756 18.0883C2.756 13.8444 4.38695 9.85528 7.34839 6.85484C10.3097 3.85441 14.2463 2.20247 18.4337 2.20247C22.6212 2.20247 26.5577 3.85441 29.5191 6.85483C32.4805 9.85531 34.1114 13.8444 34.1114 18.0882C34.1114 22.3321 32.4805 26.3212 29.5191 29.3216L29.519 29.3217C28.4298 30.4278 27.1861 31.3656 25.8278 32.1052Z" fill="#D1D2D7" fill-opacity="0.2"/>
<path d="M25.8278 32.1052L25.741 32.1525L25.7872 32.2398L26.3015 33.2114L26.3899 33.1646L26.4377 33.2524C27.9072 32.4524 29.2526 31.438 30.4309 30.2416C33.635 26.9952 35.3996 22.6787 35.3996 18.0882C35.3996 13.4977 33.635 9.18121 30.4309 5.93476L30.3597 6.005L30.4309 5.93475C27.2266 2.68834 22.9657 0.9 18.4337 0.9C13.9018 0.9 9.64083 2.68834 6.43662 5.93475C3.23245 9.18115 1.46787 13.4977 1.46787 18.0882C1.4674 19.3397 1.60039 20.5875 1.86452 21.81L1.88607 21.9097L1.98536 21.8862L2.94382 21.6587L3.03924 21.6361L3.01846 21.5402C2.99423 21.4285 2.99426 21.3122 2.99629 21.1837C2.99642 21.1759 2.99655 21.1681 2.99668 21.1602C2.99866 21.0416 3.00082 20.9123 2.97934 20.784C2.83055 19.8933 2.75584 18.9916 2.756 18.0883C2.756 13.8444 4.38695 9.85528 7.34839 6.85484C10.3097 3.85441 14.2463 2.20247 18.4337 2.20247C22.6212 2.20247 26.5577 3.85441 29.5191 6.85483C32.4805 9.85531 34.1114 13.8444 34.1114 18.0882C34.1114 22.3321 32.4805 26.3212 29.5191 29.3216L29.519 29.3217C28.4298 30.4278 27.1861 31.3656 25.8278 32.1052Z" stroke="url(#paint3_linear_1_10929)" stroke-width="0.2"/>
<path d="M25.8278 32.1052L25.741 32.1525L25.7872 32.2398L26.3015 33.2114L26.3899 33.1646L26.4377 33.2524C27.9072 32.4524 29.2526 31.438 30.4309 30.2416C33.635 26.9952 35.3996 22.6787 35.3996 18.0882C35.3996 13.4977 33.635 9.18121 30.4309 5.93476L30.3597 6.005L30.4309 5.93475C27.2266 2.68834 22.9657 0.9 18.4337 0.9C13.9018 0.9 9.64083 2.68834 6.43662 5.93475C3.23245 9.18115 1.46787 13.4977 1.46787 18.0882C1.4674 19.3397 1.60039 20.5875 1.86452 21.81L1.88607 21.9097L1.98536 21.8862L2.94382 21.6587L3.03924 21.6361L3.01846 21.5402C2.99423 21.4285 2.99426 21.3122 2.99629 21.1837C2.99642 21.1759 2.99655 21.1681 2.99668 21.1602C2.99866 21.0416 3.00082 20.9123 2.97934 20.784C2.83055 19.8933 2.75584 18.9916 2.756 18.0883C2.756 13.8444 4.38695 9.85528 7.34839 6.85484C10.3097 3.85441 14.2463 2.20247 18.4337 2.20247C22.6212 2.20247 26.5577 3.85441 29.5191 6.85483C32.4805 9.85531 34.1114 13.8444 34.1114 18.0882C34.1114 22.3321 32.4805 26.3212 29.5191 29.3216L29.519 29.3217C28.4298 30.4278 27.1861 31.3656 25.8278 32.1052Z" stroke="#D1D2D7" stroke-opacity="0.3" stroke-width="0.2"/>
<path d="M26.7419 34.1783C27.9369 33.3767 28.5322 32.1554 28.0716 31.4505C27.6109 30.7456 26.2688 30.8241 25.0738 31.6257C23.8789 32.4274 23.2836 33.6486 23.7442 34.3535C24.2048 35.0584 25.547 34.98 26.7419 34.1783Z" fill="url(#paint4_linear_1_10929)"/>
<path d="M11.7926 20.3654H13.8727C14.0799 20.3654 14.238 20.4084 14.3469 20.4946C14.3999 20.5356 14.4424 20.5889 14.4708 20.65C14.4993 20.7112 14.5128 20.7783 14.5103 20.8458C14.5117 20.9076 14.5009 20.969 14.4787 21.0265C14.4565 21.084 14.4232 21.1365 14.3808 21.1809C14.2944 21.2725 14.1636 21.3182 13.9883 21.3182H11.0555C10.8562 21.3182 10.7008 21.2623 10.5892 21.1506C10.5361 21.1002 10.4938 21.0393 10.465 20.9715C10.4362 20.9038 10.4215 20.8308 10.4219 20.757C10.4219 20.6601 10.4577 20.5316 10.5295 20.3714C10.5871 20.2335 10.6665 20.106 10.7646 19.9939C11.1178 19.6225 11.4366 19.3042 11.7209 19.0391C12.0052 18.774 12.2084 18.5998 12.3306 18.5163C12.5272 18.3786 12.7095 18.221 12.8746 18.0459C13.0094 17.9031 13.121 17.7396 13.2052 17.5614C13.2778 17.4097 13.3166 17.2436 13.3188 17.0749C13.3214 16.9124 13.2793 16.7524 13.1973 16.6127C13.1178 16.4783 13.0034 16.3686 12.8666 16.2957C12.7261 16.2202 12.5693 16.1813 12.4103 16.1827C12.0622 16.1827 11.7886 16.3374 11.5894 16.647C11.5629 16.6874 11.5184 16.7977 11.456 16.978C11.4094 17.1278 11.3379 17.2684 11.2447 17.3939C11.1663 17.4908 11.0515 17.5392 10.9001 17.5392C10.8389 17.5411 10.778 17.5302 10.7211 17.5073C10.6642 17.4844 10.6125 17.4499 10.5693 17.406C10.4816 17.3172 10.4378 17.1961 10.4378 17.0426C10.4408 16.8425 10.4828 16.6449 10.5614 16.4613C10.6466 16.255 10.772 16.0683 10.93 15.9122C11.1084 15.7383 11.3199 15.6029 11.5516 15.5145C11.8026 15.4136 12.0968 15.3631 12.4342 15.3631C12.8407 15.3631 13.1873 15.4277 13.4742 15.5569C13.6588 15.6421 13.8252 15.7627 13.9644 15.9122C14.2504 16.2206 14.4099 16.6276 14.4107 17.0507C14.4142 17.3714 14.3293 17.6867 14.1656 17.9611C14.0022 18.2344 13.8355 18.4483 13.6655 18.6031C13.4955 18.7579 13.2106 19.0008 12.8108 19.3318C12.4109 19.6629 12.1366 19.9199 11.9879 20.103C11.9167 20.1856 11.8514 20.2733 11.7926 20.3654V20.3654Z" fill="#D5B690"/>
<path d="M11.7926 20.3654H13.8727C14.0799 20.3654 14.238 20.4084 14.3469 20.4946C14.3999 20.5356 14.4424 20.5889 14.4708 20.65C14.4993 20.7112 14.5128 20.7783 14.5103 20.8458C14.5117 20.9076 14.5009 20.969 14.4787 21.0265C14.4565 21.084 14.4232 21.1365 14.3808 21.1809C14.2944 21.2725 14.1636 21.3182 13.9883 21.3182H11.0555C10.8562 21.3182 10.7008 21.2623 10.5892 21.1506C10.5361 21.1002 10.4938 21.0393 10.465 20.9715C10.4362 20.9038 10.4215 20.8308 10.4219 20.757C10.4219 20.6601 10.4577 20.5316 10.5295 20.3714C10.5871 20.2335 10.6665 20.106 10.7646 19.9939C11.1178 19.6225 11.4366 19.3042 11.7209 19.0391C12.0052 18.774 12.2084 18.5998 12.3306 18.5163C12.5272 18.3786 12.7095 18.221 12.8746 18.0459C13.0094 17.9031 13.121 17.7396 13.2052 17.5614C13.2778 17.4097 13.3166 17.2436 13.3188 17.0749C13.3214 16.9124 13.2793 16.7524 13.1973 16.6127C13.1178 16.4783 13.0034 16.3686 12.8666 16.2957C12.7261 16.2202 12.5693 16.1813 12.4103 16.1827C12.0622 16.1827 11.7886 16.3374 11.5894 16.647C11.5629 16.6874 11.5184 16.7977 11.456 16.978C11.4094 17.1278 11.3379 17.2684 11.2447 17.3939C11.1663 17.4908 11.0515 17.5392 10.9001 17.5392C10.8389 17.5411 10.778 17.5302 10.7211 17.5073C10.6642 17.4844 10.6125 17.4499 10.5693 17.406C10.4816 17.3172 10.4378 17.1961 10.4378 17.0426C10.4408 16.8425 10.4828 16.6449 10.5614 16.4613C10.6466 16.255 10.772 16.0683 10.93 15.9122C11.1084 15.7383 11.3199 15.6029 11.5516 15.5145C11.8026 15.4136 12.0968 15.3631 12.4342 15.3631C12.8407 15.3631 13.1873 15.4277 13.4742 15.5569C13.6588 15.6421 13.8252 15.7627 13.9644 15.9122C14.2504 16.2206 14.4099 16.6276 14.4107 17.0507C14.4142 17.3714 14.3293 17.6867 14.1656 17.9611C14.0022 18.2344 13.8355 18.4483 13.6655 18.6031C13.4955 18.7579 13.2106 19.0008 12.8108 19.3318C12.4109 19.6629 12.1366 19.9199 11.9879 20.103C11.9167 20.1856 11.8514 20.2733 11.7926 20.3654V20.3654Z" fill="#D9BA66" fill-opacity="0.2"/>
<path d="M17.6779 20.6919V19.941H15.6775C15.4251 19.941 15.2358 19.8831 15.1097 19.7674C14.9835 19.6517 14.9204 19.4942 14.9204 19.295C14.9208 19.2419 14.9302 19.1893 14.9483 19.1396C14.9698 19.0813 14.9979 19.0257 15.032 18.974C15.0692 18.9162 15.1077 18.8603 15.1476 18.8065C15.1874 18.7527 15.2365 18.6867 15.295 18.6086L17.4069 15.7462C17.5092 15.6003 17.6232 15.4632 17.7477 15.3364C17.8338 15.2527 17.9491 15.207 18.0684 15.2092C18.4722 15.2092 18.6741 15.4434 18.6741 15.9117V19.0366H18.8454C19.05 19.0366 19.214 19.0649 19.3375 19.1214C19.4611 19.1779 19.5229 19.3017 19.5229 19.4928C19.5229 19.649 19.4724 19.7627 19.3714 19.834C19.2704 19.9053 19.119 19.941 18.9172 19.941H18.6741V20.6919C18.6741 20.8992 18.6289 21.0533 18.5386 21.1542C18.4911 21.2025 18.4346 21.2408 18.3724 21.2668C18.3102 21.2928 18.2435 21.306 18.1761 21.3056C18.1088 21.3052 18.0423 21.2913 17.9803 21.2646C17.9184 21.2379 17.8623 21.199 17.8154 21.1502C17.7238 21.0466 17.6779 20.8938 17.6779 20.6919ZM15.9644 19.0366H17.6779V16.6909L15.9644 19.0366Z" fill="#D5B690"/>
<path d="M17.6779 20.6919V19.941H15.6775C15.4251 19.941 15.2358 19.8831 15.1097 19.7674C14.9835 19.6517 14.9204 19.4942 14.9204 19.295C14.9208 19.2419 14.9302 19.1893 14.9483 19.1396C14.9698 19.0813 14.9979 19.0257 15.032 18.974C15.0692 18.9162 15.1077 18.8603 15.1476 18.8065C15.1874 18.7527 15.2365 18.6867 15.295 18.6086L17.4069 15.7462C17.5092 15.6003 17.6232 15.4632 17.7477 15.3364C17.8338 15.2527 17.9491 15.207 18.0684 15.2092C18.4722 15.2092 18.6741 15.4434 18.6741 15.9117V19.0366H18.8454C19.05 19.0366 19.214 19.0649 19.3375 19.1214C19.4611 19.1779 19.5229 19.3017 19.5229 19.4928C19.5229 19.649 19.4724 19.7627 19.3714 19.834C19.2704 19.9053 19.119 19.941 18.9172 19.941H18.6741V20.6919C18.6741 20.8992 18.6289 21.0533 18.5386 21.1542C18.4911 21.2025 18.4346 21.2408 18.3724 21.2668C18.3102 21.2928 18.2435 21.306 18.1761 21.3056C18.1088 21.3052 18.0423 21.2913 17.9803 21.2646C17.9184 21.2379 17.8623 21.199 17.8154 21.1502C17.7238 21.0466 17.6779 20.8938 17.6779 20.6919ZM15.9644 19.0366H17.6779V16.6909L15.9644 19.0366Z" fill="#D9BA66" fill-opacity="0.2"/>
<path d="M21.7747 16.0045L20.659 20.6596C20.6217 20.813 20.5892 20.9341 20.5613 21.023C20.5389 21.103 20.4947 21.1751 20.4338 21.2309C20.3767 21.2806 20.2937 21.3055 20.1848 21.3056C19.9138 21.3056 19.7783 21.1871 19.7783 20.9503C19.7783 20.8884 19.8049 20.7336 19.858 20.486L20.9698 15.8309C21.0282 15.5833 21.084 15.4137 21.1371 15.3222C21.1903 15.2307 21.2939 15.185 21.448 15.1849C21.5808 15.1849 21.6824 15.2172 21.7528 15.2818C21.7885 15.3158 21.8164 15.3573 21.8346 15.4033C21.8528 15.4493 21.8609 15.4988 21.8584 15.5483C21.8584 15.6318 21.8305 15.7838 21.7747 16.0045Z" fill="#D5B690"/>
<path d="M21.7747 16.0045L20.659 20.6596C20.6217 20.813 20.5892 20.9341 20.5613 21.023C20.5389 21.103 20.4947 21.1751 20.4338 21.2309C20.3767 21.2806 20.2937 21.3055 20.1848 21.3056C19.9138 21.3056 19.7783 21.1871 19.7783 20.9503C19.7783 20.8884 19.8049 20.7336 19.858 20.486L20.9698 15.8309C21.0282 15.5833 21.084 15.4137 21.1371 15.3222C21.1903 15.2307 21.2939 15.185 21.448 15.1849C21.5808 15.1849 21.6824 15.2172 21.7528 15.2818C21.7885 15.3158 21.8164 15.3573 21.8346 15.4033C21.8528 15.4493 21.8609 15.4988 21.8584 15.5483C21.8584 15.6318 21.8305 15.7838 21.7747 16.0045Z" fill="#D9BA66" fill-opacity="0.2"/>
<path d="M23.2329 15.3426H25.8867C26.1418 15.3426 26.3264 15.383 26.4406 15.4637C26.5548 15.5445 26.6119 15.6777 26.612 15.8634C26.612 15.9765 26.5449 16.1258 26.4108 16.3116C26.2765 16.4973 26.1238 16.7025 25.9524 16.9273C25.7553 17.1926 25.5781 17.4727 25.4225 17.765C25.2171 18.1554 25.0496 18.5651 24.9224 18.9883C24.8685 19.1622 24.8232 19.3387 24.7869 19.5172C24.7604 19.6572 24.7311 19.8389 24.6993 20.0623C24.6674 20.2857 24.6395 20.4566 24.6156 20.575C24.5598 20.8495 24.4808 21.04 24.3785 21.1463C24.2762 21.2526 24.14 21.3057 23.97 21.3058C23.8964 21.3086 23.8231 21.2946 23.7555 21.2649C23.6879 21.2352 23.6278 21.1906 23.5795 21.1342C23.4812 21.0198 23.4321 20.8509 23.4321 20.6275C23.4321 20.4553 23.468 20.2211 23.5397 19.925C23.633 19.5628 23.7501 19.2074 23.8903 18.8611C24.2574 17.9372 24.7539 17.0717 25.3647 16.2914H23.2329C23.0097 16.2914 22.843 16.2503 22.7327 16.1682C22.6225 16.0862 22.5674 15.9576 22.5674 15.7827C22.5674 15.5969 22.6258 15.4772 22.7427 15.4233C22.8596 15.3695 23.023 15.3426 23.2329 15.3426Z" fill="#D5B690"/>
<path d="M23.2329 15.3426H25.8867C26.1418 15.3426 26.3264 15.383 26.4406 15.4637C26.5548 15.5445 26.6119 15.6777 26.612 15.8634C26.612 15.9765 26.5449 16.1258 26.4108 16.3116C26.2765 16.4973 26.1238 16.7025 25.9524 16.9273C25.7553 17.1926 25.5781 17.4727 25.4225 17.765C25.2171 18.1554 25.0496 18.5651 24.9224 18.9883C24.8685 19.1622 24.8232 19.3387 24.7869 19.5172C24.7604 19.6572 24.7311 19.8389 24.6993 20.0623C24.6674 20.2857 24.6395 20.4566 24.6156 20.575C24.5598 20.8495 24.4808 21.04 24.3785 21.1463C24.2762 21.2526 24.14 21.3057 23.97 21.3058C23.8964 21.3086 23.8231 21.2946 23.7555 21.2649C23.6879 21.2352 23.6278 21.1906 23.5795 21.1342C23.4812 21.0198 23.4321 20.8509 23.4321 20.6275C23.4321 20.4553 23.468 20.2211 23.5397 19.925C23.633 19.5628 23.7501 19.2074 23.8903 18.8611C24.2574 17.9372 24.7539 17.0717 25.3647 16.2914H23.2329C23.0097 16.2914 22.843 16.2503 22.7327 16.1682C22.6225 16.0862 22.5674 15.9576 22.5674 15.7827C22.5674 15.5969 22.6258 15.4772 22.7427 15.4233C22.8596 15.3695 23.023 15.3426 23.2329 15.3426Z" fill="#D9BA66" fill-opacity="0.2"/>
<path d="M0.299805 17.8447C0.299805 20.4584 1.22925 22.5773 2.37578 22.5773C2.84483 22.5773 3.27755 22.2226 3.62516 21.6246C4.12723 20.7608 3.34556 19.3891 3.34556 17.8447C3.34556 16.3046 4.12903 14.9362 3.62932 14.072C3.281 13.4696 2.8467 13.1122 2.37578 13.1122C1.22925 13.1122 0.299805 15.231 0.299805 17.8447Z" fill="url(#paint5_linear_1_10929)"/>
<defs>
<linearGradient id="paint0_linear_1_10929" x1="32.0355" y1="35.9999" x2="13.2797" y2="23.4129" gradientUnits="userSpaceOnUse">
<stop stop-color="#ECAF5A"/>
<stop offset="1" stop-color="#89683D"/>
</linearGradient>
<linearGradient id="paint1_linear_1_10929" x1="32.0355" y1="35.9999" x2="13.2797" y2="23.4129" gradientUnits="userSpaceOnUse">
<stop stop-color="#ECAF5A"/>
<stop offset="1" stop-color="#89683D"/>
</linearGradient>
<linearGradient id="paint2_linear_1_10929" x1="35.2996" y1="33.1646" x2="15.0707" y2="16.6374" gradientUnits="userSpaceOnUse">
<stop stop-color="#ECAF5A"/>
<stop offset="1" stop-color="#89683D"/>
</linearGradient>
<linearGradient id="paint3_linear_1_10929" x1="35.2996" y1="33.1646" x2="15.0707" y2="16.6374" gradientUnits="userSpaceOnUse">
<stop stop-color="#ECAF5A"/>
<stop offset="1" stop-color="#89683D"/>
</linearGradient>
<linearGradient id="paint4_linear_1_10929" x1="23.7442" y1="34.3535" x2="28.1059" y2="31.5031" gradientUnits="userSpaceOnUse">
<stop stop-color="#967A53"/>
<stop offset="1" stop-color="#E9D39F"/>
</linearGradient>
<linearGradient id="paint5_linear_1_10929" x1="0.299804" y1="17.8447" x2="3.79595" y2="17.8447" gradientUnits="userSpaceOnUse">
<stop stop-color="#967A53"/>
<stop offset="1" stop-color="#E9D39F"/>
</linearGradient>
</defs>
</svg>
