<svg width="38" height="37" viewBox="0 0 38 37" fill="none" xmlns="http://www.w3.org/2000/svg">
<path d="M32.8222 18.5C32.8222 26.2443 26.5441 32.5224 18.7998 32.5224M32.8222 18.5C32.8222 10.7556 26.5441 4.47754 18.7998 4.47754M32.8222 18.5H4.77734M18.7998 32.5224C11.0554 32.5224 4.77734 26.2443 4.77734 18.5M18.7998 32.5224C22.3072 28.6826 24.3004 23.6994 24.4087 18.5C24.3004 13.3005 22.3072 8.31738 18.7998 4.47754M18.7998 32.5224C15.2924 28.6826 13.2991 23.6994 13.1908 18.5C13.2991 13.3005 15.2924 8.31738 18.7998 4.47754M4.77734 18.5C4.77734 10.7556 11.0554 4.47754 18.7998 4.47754" stroke="url(#paint0_linear_1_10921)" stroke-width="2" stroke-linecap="round" stroke-linejoin="round"/>
<path d="M32.8222 18.5C32.8222 26.2443 26.5441 32.5224 18.7998 32.5224M32.8222 18.5C32.8222 10.7556 26.5441 4.47754 18.7998 4.47754M32.8222 18.5H4.77734M18.7998 32.5224C11.0554 32.5224 4.77734 26.2443 4.77734 18.5M18.7998 32.5224C22.3072 28.6826 24.3004 23.6994 24.4087 18.5C24.3004 13.3005 22.3072 8.31738 18.7998 4.47754M18.7998 32.5224C15.2924 28.6826 13.2991 23.6994 13.1908 18.5C13.2991 13.3005 15.2924 8.31738 18.7998 4.47754M4.77734 18.5C4.77734 10.7556 11.0554 4.47754 18.7998 4.47754" stroke="#D1D2D7" stroke-opacity="0.3" stroke-width="2" stroke-linecap="round" stroke-linejoin="round"/>
<path d="M18.7998 36C28.4648 36 36.2998 28.165 36.2998 18.5C36.2998 8.83502 28.4648 1 18.7998 1C9.13482 1 1.2998 8.83502 1.2998 18.5C1.2998 28.165 9.13482 36 18.7998 36Z" stroke="url(#paint1_linear_1_10921)" stroke-width="1.5" stroke-linecap="round" stroke-linejoin="round"/>
<path d="M18.7998 36C28.4648 36 36.2998 28.165 36.2998 18.5C36.2998 8.83502 28.4648 1 18.7998 1C9.13482 1 1.2998 8.83502 1.2998 18.5C1.2998 28.165 9.13482 36 18.7998 36Z" stroke="#D1D2D7" stroke-opacity="0.2" stroke-width="1.5" stroke-linecap="round" stroke-linejoin="round"/>
<defs>
<linearGradient id="paint0_linear_1_10921" x1="32.8222" y1="32.5224" x2="15.3697" y2="18.926" gradientUnits="userSpaceOnUse">
<stop stop-color="#ECAF5A"/>
<stop offset="1" stop-color="#89683D"/>
</linearGradient>
<linearGradient id="paint1_linear_1_10921" x1="36.2998" y1="36" x2="14.5191" y2="19.0316" gradientUnits="userSpaceOnUse">
<stop stop-color="#ECAF5A"/>
<stop offset="1" stop-color="#89683D"/>
</linearGradient>
</defs>
</svg>
