<svg width="32" height="32" viewBox="0 0 32 32" fill="none" xmlns="http://www.w3.org/2000/svg">
<path d="M13.3356 18.9183L12.2821 20.105C11.4705 20.9152 10.4369 21.4666 9.31205 21.6896C8.18716 21.9126 7.02142 21.7972 5.96212 21.3578C4.90283 20.9185 3.99753 20.1751 3.36063 19.2214C2.72372 18.2678 2.38379 17.1467 2.38379 15.9999C2.38379 14.8532 2.72372 13.7321 3.36063 12.7785C3.99753 11.8248 4.90283 11.0814 5.96212 10.6421C7.02142 10.2027 8.18716 10.0873 9.31205 10.3103C10.4369 10.5333 11.4705 11.0847 12.2821 11.8949L19.5719 20.105C20.3835 20.9152 21.4171 21.4666 22.542 21.6896C23.6669 21.9126 24.8326 21.7972 25.8919 21.3578C26.9512 20.9185 27.8565 20.1751 28.4934 19.2214C29.1303 18.2678 29.4702 17.1467 29.4702 15.9999C29.4702 14.8532 29.1303 13.7321 28.4934 12.7785C27.8565 11.8248 26.9512 11.0814 25.8919 10.6421C24.8326 10.2027 23.6669 10.0873 22.542 10.3103C21.4171 10.5333 20.3835 11.0847 19.5719 11.8949L18.5184 13.0816" stroke="url(#paint0_linear_1_20451)" stroke-width="2" stroke-linecap="round" stroke-linejoin="round"/>
<defs>
<linearGradient id="paint0_linear_1_20451" x1="1.38395" y1="-3.4728" x2="41.0901" y2="18.0072" gradientUnits="userSpaceOnUse">
<stop stop-color="#FFE986" stop-opacity="0.88"/>
<stop offset="0.670219" stop-color="#BC7E20"/>
<stop offset="1" stop-color="#A74D01"/>
</linearGradient>
</defs>
</svg>
