<svg width="36" height="35" viewBox="0 0 36 35" fill="none" xmlns="http://www.w3.org/2000/svg">
<path d="M7.94531 20.8399H23.6453C24.1128 20.8414 24.5658 20.678 24.9247 20.3785C25.2836 20.079 25.5255 19.6626 25.6078 19.2024L27.1328 10.8399H6.13281" stroke="url(#paint0_linear_1_20438)" stroke-width="1.5" stroke-linecap="round" stroke-linejoin="round"/>
<path d="M7.94531 20.8399H23.6453C24.1128 20.8414 24.5658 20.678 24.9247 20.3785C25.2836 20.079 25.5255 19.6626 25.6078 19.2024L27.1328 10.8399H6.13281" stroke="#D1D2D7" stroke-opacity="0.3" stroke-width="1.5" stroke-linecap="round" stroke-linejoin="round"/>
<path d="M23.1328 30.8399C24.5135 30.8399 25.6328 29.7206 25.6328 28.3399C25.6328 26.9592 24.5135 25.8399 23.1328 25.8399C21.7521 25.8399 20.6328 26.9592 20.6328 28.3399C20.6328 29.7206 21.7521 30.8399 23.1328 30.8399Z" stroke="#D5B690" stroke-width="1.3" stroke-linecap="round" stroke-linejoin="round"/>
<path d="M10.1328 30.8399C11.5135 30.8399 12.6328 29.7206 12.6328 28.3399C12.6328 26.9592 11.5135 25.8399 10.1328 25.8399C8.7521 25.8399 7.63281 26.9592 7.63281 28.3399C7.63281 29.7206 8.7521 30.8399 10.1328 30.8399Z" stroke="url(#paint1_linear_1_20438)" stroke-width="1.3" stroke-linecap="round" stroke-linejoin="round"/>
<path d="M10.1328 30.8399C11.5135 30.8399 12.6328 29.7206 12.6328 28.3399C12.6328 26.9592 11.5135 25.8399 10.1328 25.8399C8.7521 25.8399 7.63281 26.9592 7.63281 28.3399C7.63281 29.7206 8.7521 30.8399 10.1328 30.8399Z" stroke="#D1D2D7" stroke-opacity="0.5" stroke-width="1.3" stroke-linecap="round" stroke-linejoin="round"/>
<path d="M23.1328 25.8399H8.85781L5.37031 6.66494C5.32951 6.4353 5.20972 6.22716 5.03168 6.0765C4.85363 5.92585 4.62853 5.84217 4.39531 5.83994H2.13281" stroke="url(#paint2_linear_1_20438)" stroke-width="1.5" stroke-linecap="round" stroke-linejoin="round"/>
<path d="M23.1328 25.8399H8.85781L5.37031 6.66494C5.32951 6.4353 5.20972 6.22716 5.03168 6.0765C4.85363 5.92585 4.62853 5.84217 4.39531 5.83994H2.13281" stroke="#AEAEAE" stroke-opacity="0.5" stroke-width="1.5" stroke-linecap="round" stroke-linejoin="round"/>
<rect x="23.7891" y="0.121185" width="12" height="12" rx="6" fill="#58BD7D"/>
<path d="M28.5012 4.55318V3.28119H30.7172V9.12119H29.2932V4.55318H28.5012Z" fill="white"/>
<defs>
<linearGradient id="paint0_linear_1_20438" x1="27.1328" y1="20.8399" x2="21.4209" y2="11.4952" gradientUnits="userSpaceOnUse">
<stop stop-color="#ECAF5A"/>
<stop offset="1" stop-color="#89683D"/>
</linearGradient>
<linearGradient id="paint1_linear_1_20438" x1="12.6328" y1="30.8399" x2="9.52128" y2="28.4159" gradientUnits="userSpaceOnUse">
<stop stop-color="#ECAF5A"/>
<stop offset="1" stop-color="#89683D"/>
</linearGradient>
<linearGradient id="paint2_linear_1_20438" x1="23.1328" y1="25.8399" x2="10.5514" y2="15.5483" gradientUnits="userSpaceOnUse">
<stop stop-color="#ECAF5A"/>
<stop offset="1" stop-color="#89683D"/>
</linearGradient>
</defs>
</svg>
