<svg width="364" height="295" viewBox="0 0 364 295" fill="none" xmlns="http://www.w3.org/2000/svg">
<g filter="url(#filter0_d_1_8870)">
<rect x="104.079" y="70" width="178.482" height="86.6005" rx="12" fill="#202020"/>
<path d="M159.745 110.958C159.358 108.245 158.066 105.732 156.067 103.804C154.068 101.877 151.474 100.643 148.684 100.292C145.894 99.9419 143.063 100.494 140.627 101.864M134.412 101.708V107.875H140.745" stroke="white" stroke-width="1.5" stroke-linecap="round" stroke-linejoin="round"/>
<path d="M134.412 114.042C134.799 116.755 136.092 119.268 138.091 121.196C140.089 123.123 142.684 124.357 145.474 124.708C148.264 125.058 151.095 124.506 153.53 123.136M159.745 123.292V117.125H153.412" stroke="white" stroke-width="1.5" stroke-linecap="round" stroke-linejoin="round"/>
<path d="M189.354 88.05H181.854V90.825C182.17 90.4917 182.604 90.225 183.154 90.025C183.704 89.825 184.312 89.725 184.979 89.725C186.179 89.725 187.179 90 187.979 90.55C188.795 91.1 189.395 91.825 189.779 92.725C190.162 93.625 190.354 94.6083 190.354 95.675C190.354 97.6417 189.795 99.1917 188.679 100.325C187.562 101.442 186.012 102 184.029 102C182.645 102 181.445 101.767 180.429 101.3C179.429 100.817 178.662 100.15 178.129 99.3C177.595 98.45 177.32 97.475 177.304 96.375H182.079C182.129 96.7583 182.295 97.0917 182.579 97.375C182.862 97.6583 183.279 97.8 183.829 97.8C184.412 97.8 184.854 97.6 185.154 97.2C185.454 96.8 185.604 96.2667 185.604 95.6C185.604 94.95 185.445 94.4583 185.129 94.125C184.812 93.775 184.354 93.6 183.754 93.6C183.304 93.6 182.937 93.7167 182.654 93.95C182.387 94.1667 182.229 94.4417 182.179 94.775H177.404V83.725H189.354V88.05ZM192.435 92.6C192.435 89.7333 193.019 87.475 194.185 85.825C195.352 84.175 197.185 83.35 199.685 83.35C202.185 83.35 204.019 84.175 205.185 85.825C206.369 87.475 206.96 89.7333 206.96 92.6C206.96 95.5 206.377 97.775 205.21 99.425C204.044 101.075 202.202 101.9 199.685 101.9C197.169 101.9 195.327 101.075 194.16 99.425C193.01 97.775 192.435 95.5 192.435 92.6ZM202.11 92.6C202.11 91.1 201.952 89.9583 201.635 89.175C201.319 88.375 200.669 87.975 199.685 87.975C198.702 87.975 198.052 88.375 197.735 89.175C197.419 89.9583 197.26 91.1 197.26 92.6C197.26 94.1333 197.41 95.3 197.71 96.1C198.027 96.8833 198.685 97.275 199.685 97.275C200.685 97.275 201.335 96.8833 201.635 96.1C201.952 95.3 202.11 94.1333 202.11 92.6ZM208.866 92.6C208.866 89.7333 209.449 87.475 210.616 85.825C211.783 84.175 213.616 83.35 216.116 83.35C218.616 83.35 220.449 84.175 221.616 85.825C222.799 87.475 223.391 89.7333 223.391 92.6C223.391 95.5 222.808 97.775 221.641 99.425C220.474 101.075 218.633 101.9 216.116 101.9C213.599 101.9 211.758 101.075 210.591 99.425C209.441 97.775 208.866 95.5 208.866 92.6ZM218.541 92.6C218.541 91.1 218.383 89.9583 218.066 89.175C217.749 88.375 217.099 87.975 216.116 87.975C215.133 87.975 214.483 88.375 214.166 89.175C213.849 89.9583 213.691 91.1 213.691 92.6C213.691 94.1333 213.841 95.3 214.141 96.1C214.458 96.8833 215.116 97.275 216.116 97.275C217.116 97.275 217.766 96.8833 218.066 96.1C218.383 95.3 218.541 94.1333 218.541 92.6ZM225.297 92.6C225.297 89.7333 225.88 87.475 227.047 85.825C228.213 84.175 230.047 83.35 232.547 83.35C235.047 83.35 236.88 84.175 238.047 85.825C239.23 87.475 239.822 89.7333 239.822 92.6C239.822 95.5 239.238 97.775 238.072 99.425C236.905 101.075 235.063 101.9 232.547 101.9C230.03 101.9 228.188 101.075 227.022 99.425C225.872 97.775 225.297 95.5 225.297 92.6ZM234.972 92.6C234.972 91.1 234.813 89.9583 234.497 89.175C234.18 88.375 233.53 87.975 232.547 87.975C231.563 87.975 230.913 88.375 230.597 89.175C230.28 89.9583 230.122 91.1 230.122 92.6C230.122 94.1333 230.272 95.3 230.572 96.1C230.888 96.8833 231.547 97.275 232.547 97.275C233.547 97.275 234.197 96.8833 234.497 96.1C234.813 95.3 234.972 94.1333 234.972 92.6ZM254.502 95.6H250.477V99.75H245.777V95.6H241.727V91.175H245.777V87H250.477V91.175H254.502V95.6Z" fill="url(#paint0_linear_1_8870)"/>
<path d="M186.205 122.454V135H184.567V129.312H178.177V135H176.539V122.454H178.177V127.962H184.567V122.454H186.205ZM193.304 135.162C192.38 135.162 191.54 134.952 190.784 134.532C190.04 134.112 189.452 133.518 189.02 132.75C188.6 131.97 188.39 131.07 188.39 130.05C188.39 129.042 188.606 128.154 189.038 127.386C189.482 126.606 190.082 126.012 190.838 125.604C191.594 125.184 192.44 124.974 193.376 124.974C194.312 124.974 195.158 125.184 195.914 125.604C196.67 126.012 197.264 126.6 197.696 127.368C198.14 128.136 198.362 129.03 198.362 130.05C198.362 131.07 198.134 131.97 197.678 132.75C197.234 133.518 196.628 134.112 195.86 134.532C195.092 134.952 194.24 135.162 193.304 135.162ZM193.304 133.722C193.892 133.722 194.444 133.584 194.96 133.308C195.476 133.032 195.89 132.618 196.202 132.066C196.526 131.514 196.688 130.842 196.688 130.05C196.688 129.258 196.532 128.586 196.22 128.034C195.908 127.482 195.5 127.074 194.996 126.81C194.492 126.534 193.946 126.396 193.358 126.396C192.758 126.396 192.206 126.534 191.702 126.81C191.21 127.074 190.814 127.482 190.514 128.034C190.214 128.586 190.064 129.258 190.064 130.05C190.064 130.854 190.208 131.532 190.496 132.084C190.796 132.636 191.192 133.05 191.684 133.326C192.176 133.59 192.716 133.722 193.304 133.722ZM202.153 121.68V135H200.515V121.68H202.153ZM204.333 130.032C204.333 129.024 204.537 128.142 204.945 127.386C205.353 126.618 205.911 126.024 206.619 125.604C207.339 125.184 208.143 124.974 209.031 124.974C209.799 124.974 210.513 125.154 211.173 125.514C211.833 125.862 212.337 126.324 212.685 126.9V121.68H214.341V135H212.685V133.146C212.361 133.734 211.881 134.22 211.245 134.604C210.609 134.976 209.865 135.162 209.013 135.162C208.137 135.162 207.339 134.946 206.619 134.514C205.911 134.082 205.353 133.476 204.945 132.696C204.537 131.916 204.333 131.028 204.333 130.032ZM212.685 130.05C212.685 129.306 212.535 128.658 212.235 128.106C211.935 127.554 211.527 127.134 211.011 126.846C210.507 126.546 209.949 126.396 209.337 126.396C208.725 126.396 208.167 126.54 207.663 126.828C207.159 127.116 206.757 127.536 206.457 128.088C206.157 128.64 206.007 129.288 206.007 130.032C206.007 130.788 206.157 131.448 206.457 132.012C206.757 132.564 207.159 132.99 207.663 133.29C208.167 133.578 208.725 133.722 209.337 133.722C209.949 133.722 210.507 133.578 211.011 133.29C211.527 132.99 211.935 132.564 212.235 132.012C212.535 131.448 212.685 130.794 212.685 130.05ZM226.109 129.69C226.109 130.002 226.091 130.332 226.055 130.68H218.171C218.231 131.652 218.561 132.414 219.161 132.966C219.773 133.506 220.511 133.776 221.375 133.776C222.083 133.776 222.671 133.614 223.139 133.29C223.619 132.954 223.955 132.51 224.147 131.958H225.911C225.647 132.906 225.119 133.68 224.327 134.28C223.535 134.868 222.551 135.162 221.375 135.162C220.439 135.162 219.599 134.952 218.855 134.532C218.123 134.112 217.547 133.518 217.127 132.75C216.707 131.97 216.497 131.07 216.497 130.05C216.497 129.03 216.701 128.136 217.109 127.368C217.517 126.6 218.087 126.012 218.819 125.604C219.563 125.184 220.415 124.974 221.375 124.974C222.311 124.974 223.139 125.178 223.859 125.586C224.579 125.994 225.131 126.558 225.515 127.278C225.911 127.986 226.109 128.79 226.109 129.69ZM224.417 129.348C224.417 128.724 224.279 128.19 224.003 127.746C223.727 127.29 223.349 126.948 222.869 126.72C222.401 126.48 221.879 126.36 221.303 126.36C220.475 126.36 219.767 126.624 219.179 127.152C218.603 127.68 218.273 128.412 218.189 129.348H224.417ZM229.909 126.738C230.197 126.174 230.605 125.736 231.133 125.424C231.673 125.112 232.327 124.956 233.095 124.956V126.648H232.663C230.827 126.648 229.909 127.644 229.909 129.636V135H228.271V125.136H229.909V126.738ZM238.478 135.162C237.722 135.162 237.044 135.036 236.444 134.784C235.844 134.52 235.37 134.16 235.022 133.704C234.674 133.236 234.482 132.702 234.446 132.102H236.138C236.186 132.594 236.414 132.996 236.822 133.308C237.242 133.62 237.788 133.776 238.46 133.776C239.084 133.776 239.576 133.638 239.936 133.362C240.296 133.086 240.476 132.738 240.476 132.318C240.476 131.886 240.284 131.568 239.9 131.364C239.516 131.148 238.922 130.938 238.118 130.734C237.386 130.542 236.786 130.35 236.318 130.158C235.862 129.954 235.466 129.66 235.13 129.276C234.806 128.88 234.644 128.364 234.644 127.728C234.644 127.224 234.794 126.762 235.094 126.342C235.394 125.922 235.82 125.592 236.372 125.352C236.924 125.1 237.554 124.974 238.262 124.974C239.354 124.974 240.236 125.25 240.908 125.802C241.58 126.354 241.94 127.11 241.988 128.07H240.35C240.314 127.554 240.104 127.14 239.72 126.828C239.348 126.516 238.844 126.36 238.208 126.36C237.62 126.36 237.152 126.486 236.804 126.738C236.456 126.99 236.282 127.32 236.282 127.728C236.282 128.052 236.384 128.322 236.588 128.538C236.804 128.742 237.068 128.91 237.38 129.042C237.704 129.162 238.148 129.3 238.712 129.456C239.42 129.648 239.996 129.84 240.44 130.032C240.884 130.212 241.262 130.488 241.574 130.86C241.898 131.232 242.066 131.718 242.078 132.318C242.078 132.858 241.928 133.344 241.628 133.776C241.328 134.208 240.902 134.55 240.35 134.802C239.81 135.042 239.186 135.162 238.478 135.162Z" fill="#BBBBBB"/>
<rect x="104.579" y="70.5" width="177.482" height="85.6005" rx="11.5" stroke="url(#paint1_linear_1_8870)"/>
</g>
<defs>
<filter id="filter0_d_1_8870" x="0.0786133" y="0" width="386.482" height="294.601" filterUnits="userSpaceOnUse" color-interpolation-filters="sRGB">
<feFlood flood-opacity="0" result="BackgroundImageFix"/>
<feColorMatrix in="SourceAlpha" type="matrix" values="0 0 0 0 0 0 0 0 0 0 0 0 0 0 0 0 0 0 127 0" result="hardAlpha"/>
<feOffset dy="34"/>
<feGaussianBlur stdDeviation="52"/>
<feColorMatrix type="matrix" values="0 0 0 0 0.0625 0 0 0 0 0.0625 0 0 0 0 0.0625 0 0 0 0.85 0"/>
<feBlend mode="normal" in2="BackgroundImageFix" result="effect1_dropShadow_1_8870"/>
<feBlend mode="normal" in="SourceGraphic" in2="effect1_dropShadow_1_8870" result="shape"/>
</filter>
<linearGradient id="paint0_linear_1_8870" x1="175.079" y1="93.5" x2="256.079" y2="93.5" gradientUnits="userSpaceOnUse">
<stop stop-color="#967A53"/>
<stop offset="1" stop-color="#E9D39F"/>
</linearGradient>
<linearGradient id="paint1_linear_1_8870" x1="282.56" y1="156.601" x2="242.43" y2="77.8313" gradientUnits="userSpaceOnUse">
<stop stop-color="#333649"/>
<stop offset="1" stop-color="#252632" stop-opacity="0"/>
</linearGradient>
</defs>
</svg>
