<svg width="393" height="304" viewBox="0 0 393 304" fill="none" xmlns="http://www.w3.org/2000/svg">
<g filter="url(#filter0_d_1_8878)">
<rect x="104.566" y="70.5" width="183.762" height="95.0494" rx="12" fill="#202020"/>
<path d="M180.491 96.575C179.008 95.7583 178.266 94.4833 178.266 92.75C178.266 91.85 178.499 91.0333 178.966 90.3C179.449 89.55 180.174 88.9583 181.141 88.525C182.108 88.075 183.299 87.85 184.716 87.85C186.133 87.85 187.324 88.075 188.291 88.525C189.258 88.9583 189.974 89.55 190.441 90.3C190.924 91.0333 191.166 91.85 191.166 92.75C191.166 93.6333 190.966 94.4 190.566 95.05C190.183 95.6833 189.641 96.1917 188.941 96.575C189.808 97.025 190.466 97.625 190.916 98.375C191.366 99.125 191.591 100.008 191.591 101.025C191.591 102.242 191.283 103.292 190.666 104.175C190.049 105.042 189.216 105.7 188.166 106.15C187.133 106.6 185.983 106.825 184.716 106.825C183.449 106.825 182.291 106.6 181.241 106.15C180.208 105.7 179.383 105.042 178.766 104.175C178.149 103.292 177.841 102.242 177.841 101.025C177.841 100.008 178.066 99.125 178.516 98.375C178.966 97.625 179.624 97.025 180.491 96.575ZM186.366 93.525C186.366 92.9417 186.216 92.4917 185.916 92.175C185.616 91.8417 185.216 91.675 184.716 91.675C184.233 91.675 183.833 91.8417 183.516 92.175C183.216 92.5083 183.066 92.9583 183.066 93.525C183.066 94.0917 183.216 94.5333 183.516 94.85C183.833 95.1667 184.233 95.325 184.716 95.325C185.199 95.325 185.591 95.1667 185.891 94.85C186.208 94.5333 186.366 94.0917 186.366 93.525ZM184.716 98.675C184.083 98.675 183.566 98.8667 183.166 99.25C182.783 99.6167 182.591 100.117 182.591 100.75C182.591 101.35 182.783 101.842 183.166 102.225C183.549 102.608 184.066 102.8 184.716 102.8C185.366 102.8 185.874 102.608 186.241 102.225C186.624 101.842 186.816 101.35 186.816 100.75C186.816 100.117 186.624 99.6167 186.241 99.25C185.858 98.8667 185.349 98.675 184.716 98.675ZM193.874 97.1C193.874 94.2333 194.457 91.975 195.624 90.325C196.791 88.675 198.624 87.85 201.124 87.85C203.624 87.85 205.457 88.675 206.624 90.325C207.807 91.975 208.399 94.2333 208.399 97.1C208.399 100 207.816 102.275 206.649 103.925C205.482 105.575 203.641 106.4 201.124 106.4C198.607 106.4 196.766 105.575 195.599 103.925C194.449 102.275 193.874 100 193.874 97.1ZM203.549 97.1C203.549 95.6 203.391 94.4583 203.074 93.675C202.757 92.875 202.107 92.475 201.124 92.475C200.141 92.475 199.491 92.875 199.174 93.675C198.857 94.4583 198.699 95.6 198.699 97.1C198.699 98.6333 198.849 99.8 199.149 100.6C199.466 101.383 200.124 101.775 201.124 101.775C202.124 101.775 202.774 101.383 203.074 100.6C203.391 99.8 203.549 98.6333 203.549 97.1ZM210.305 97.1C210.305 94.2333 210.888 91.975 212.055 90.325C213.221 88.675 215.055 87.85 217.555 87.85C220.055 87.85 221.888 88.675 223.055 90.325C224.238 91.975 224.83 94.2333 224.83 97.1C224.83 100 224.246 102.275 223.08 103.925C221.913 105.575 220.071 106.4 217.555 106.4C215.038 106.4 213.196 105.575 212.03 103.925C210.88 102.275 210.305 100 210.305 97.1ZM219.98 97.1C219.98 95.6 219.821 94.4583 219.505 93.675C219.188 92.875 218.538 92.475 217.555 92.475C216.571 92.475 215.921 92.875 215.605 93.675C215.288 94.4583 215.13 95.6 215.13 97.1C215.13 98.6333 215.28 99.8 215.58 100.6C215.896 101.383 216.555 101.775 217.555 101.775C218.555 101.775 219.205 101.383 219.505 100.6C219.821 99.8 219.98 98.6333 219.98 97.1ZM239.51 100.1H235.485V104.25H230.785V100.1H226.735V95.675H230.785V91.5H235.485V95.675H239.51V100.1Z" fill="url(#paint0_linear_1_8878)"/>
<path d="M186.513 130.626C186.513 131.67 186.153 132.54 185.433 133.236C184.725 133.92 183.639 134.262 182.175 134.262H179.763V139.5H178.125V126.954H182.175C183.591 126.954 184.665 127.296 185.397 127.98C186.141 128.664 186.513 129.546 186.513 130.626ZM182.175 132.912C183.087 132.912 183.759 132.714 184.191 132.318C184.623 131.922 184.839 131.358 184.839 130.626C184.839 129.078 183.951 128.304 182.175 128.304H179.763V132.912H182.175ZM187.937 134.532C187.937 133.524 188.141 132.642 188.549 131.886C188.957 131.118 189.515 130.524 190.223 130.104C190.943 129.684 191.741 129.474 192.617 129.474C193.481 129.474 194.231 129.66 194.867 130.032C195.503 130.404 195.977 130.872 196.289 131.436V129.636H197.945V139.5H196.289V137.664C195.965 138.24 195.479 138.72 194.831 139.104C194.195 139.476 193.451 139.662 192.599 139.662C191.723 139.662 190.931 139.446 190.223 139.014C189.515 138.582 188.957 137.976 188.549 137.196C188.141 136.416 187.937 135.528 187.937 134.532ZM196.289 134.55C196.289 133.806 196.139 133.158 195.839 132.606C195.539 132.054 195.131 131.634 194.615 131.346C194.111 131.046 193.553 130.896 192.941 130.896C192.329 130.896 191.771 131.04 191.267 131.328C190.763 131.616 190.361 132.036 190.061 132.588C189.761 133.14 189.611 133.788 189.611 134.532C189.611 135.288 189.761 135.948 190.061 136.512C190.361 137.064 190.763 137.49 191.267 137.79C191.771 138.078 192.329 138.222 192.941 138.222C193.553 138.222 194.111 138.078 194.615 137.79C195.131 137.49 195.539 137.064 195.839 136.512C196.139 135.948 196.289 135.294 196.289 134.55ZM202.351 131.238C202.639 130.674 203.047 130.236 203.575 129.924C204.115 129.612 204.769 129.456 205.537 129.456V131.148H205.105C203.269 131.148 202.351 132.144 202.351 134.136V139.5H200.713V129.636H202.351V131.238ZM209.426 130.986V136.8C209.426 137.28 209.528 137.622 209.732 137.826C209.936 138.018 210.29 138.114 210.794 138.114H212V139.5H210.524C209.612 139.5 208.928 139.29 208.472 138.87C208.016 138.45 207.788 137.76 207.788 136.8V130.986H206.51V129.636H207.788V127.152H209.426V129.636H212V130.986H209.426ZM218.79 129.456C219.99 129.456 220.962 129.822 221.706 130.554C222.45 131.274 222.822 132.318 222.822 133.686V139.5H221.202V133.92C221.202 132.936 220.956 132.186 220.464 131.67C219.972 131.142 219.3 130.878 218.448 130.878C217.584 130.878 216.894 131.148 216.378 131.688C215.874 132.228 215.622 133.014 215.622 134.046V139.5H213.984V129.636H215.622V131.04C215.946 130.536 216.384 130.146 216.936 129.87C217.5 129.594 218.118 129.456 218.79 129.456ZM234.498 134.19C234.498 134.502 234.48 134.832 234.444 135.18H226.56C226.62 136.152 226.95 136.914 227.55 137.466C228.162 138.006 228.9 138.276 229.764 138.276C230.472 138.276 231.06 138.114 231.528 137.79C232.008 137.454 232.344 137.01 232.536 136.458H234.3C234.036 137.406 233.508 138.18 232.716 138.78C231.924 139.368 230.94 139.662 229.764 139.662C228.828 139.662 227.988 139.452 227.244 139.032C226.512 138.612 225.936 138.018 225.516 137.25C225.096 136.47 224.886 135.57 224.886 134.55C224.886 133.53 225.09 132.636 225.498 131.868C225.906 131.1 226.476 130.512 227.208 130.104C227.952 129.684 228.804 129.474 229.764 129.474C230.7 129.474 231.528 129.678 232.248 130.086C232.968 130.494 233.52 131.058 233.904 131.778C234.3 132.486 234.498 133.29 234.498 134.19ZM232.806 133.848C232.806 133.224 232.668 132.69 232.392 132.246C232.116 131.79 231.738 131.448 231.258 131.22C230.79 130.98 230.268 130.86 229.692 130.86C228.864 130.86 228.156 131.124 227.568 131.652C226.992 132.18 226.662 132.912 226.578 133.848H232.806ZM238.298 131.238C238.586 130.674 238.994 130.236 239.522 129.924C240.062 129.612 240.716 129.456 241.484 129.456V131.148H241.052C239.216 131.148 238.298 132.144 238.298 134.136V139.5H236.66V129.636H238.298V131.238ZM246.867 139.662C246.111 139.662 245.433 139.536 244.833 139.284C244.233 139.02 243.759 138.66 243.411 138.204C243.063 137.736 242.871 137.202 242.835 136.602H244.527C244.575 137.094 244.803 137.496 245.211 137.808C245.631 138.12 246.177 138.276 246.849 138.276C247.473 138.276 247.965 138.138 248.325 137.862C248.685 137.586 248.865 137.238 248.865 136.818C248.865 136.386 248.673 136.068 248.289 135.864C247.905 135.648 247.311 135.438 246.507 135.234C245.775 135.042 245.175 134.85 244.707 134.658C244.251 134.454 243.855 134.16 243.519 133.776C243.195 133.38 243.033 132.864 243.033 132.228C243.033 131.724 243.183 131.262 243.483 130.842C243.783 130.422 244.209 130.092 244.761 129.852C245.313 129.6 245.943 129.474 246.651 129.474C247.743 129.474 248.625 129.75 249.297 130.302C249.969 130.854 250.329 131.61 250.377 132.57H248.739C248.703 132.054 248.493 131.64 248.109 131.328C247.737 131.016 247.233 130.86 246.597 130.86C246.009 130.86 245.541 130.986 245.193 131.238C244.845 131.49 244.671 131.82 244.671 132.228C244.671 132.552 244.773 132.822 244.977 133.038C245.193 133.242 245.457 133.41 245.769 133.542C246.093 133.662 246.537 133.8 247.101 133.956C247.809 134.148 248.385 134.34 248.829 134.532C249.273 134.712 249.651 134.988 249.963 135.36C250.287 135.732 250.455 136.218 250.467 136.818C250.467 137.358 250.317 137.844 250.017 138.276C249.717 138.708 249.291 139.05 248.739 139.302C248.199 139.542 247.575 139.662 246.867 139.662Z" fill="#BBBBBB"/>
<path d="M150.676 112.031C152.785 112.031 154.497 110.336 154.497 108.245C154.497 106.154 152.785 104.459 150.676 104.459" stroke="white" stroke-width="1.5" stroke-linecap="round" stroke-linejoin="round"/>
<path d="M152.432 116.144C153.062 116.187 153.689 116.276 154.305 116.414C155.162 116.58 156.193 116.928 156.56 117.69C156.794 118.178 156.794 118.746 156.56 119.235C156.194 119.997 155.162 120.344 154.305 120.518" stroke="white" stroke-width="1.5" stroke-linecap="round" stroke-linejoin="round"/>
<path d="M135.792 112.031C133.683 112.031 131.971 110.336 131.971 108.245C131.971 106.154 133.683 104.459 135.792 104.459" stroke="white" stroke-width="1.5" stroke-linecap="round" stroke-linejoin="round"/>
<path d="M134.036 116.144C133.406 116.187 132.779 116.276 132.162 116.414C131.306 116.58 130.275 116.928 129.909 117.69C129.674 118.178 129.674 118.746 129.909 119.235C130.274 119.997 131.306 120.344 132.162 120.518" stroke="white" stroke-width="1.5" stroke-linecap="round" stroke-linejoin="round"/>
<path fill-rule="evenodd" clip-rule="evenodd" d="M143.228 116.96C147.502 116.96 151.154 117.601 151.154 120.166C151.154 122.731 147.527 123.396 143.228 123.396C138.952 123.396 135.301 122.755 135.301 120.189C135.301 117.624 138.929 116.96 143.228 116.96Z" stroke="white" stroke-width="1.5" stroke-linecap="round" stroke-linejoin="round"/>
<path fill-rule="evenodd" clip-rule="evenodd" d="M143.228 113.3C140.409 113.3 138.148 111.06 138.148 108.265C138.148 105.471 140.409 103.23 143.228 103.23C146.047 103.23 148.307 105.471 148.307 108.265C148.307 111.06 146.047 113.3 143.228 113.3Z" stroke="white" stroke-width="1.5" stroke-linecap="round" stroke-linejoin="round"/>
<rect x="105.066" y="71" width="182.762" height="94.0494" rx="11.5" stroke="url(#paint1_linear_1_8878)"/>
</g>
<defs>
<filter id="filter0_d_1_8878" x="0.565918" y="0.5" width="391.762" height="303.049" filterUnits="userSpaceOnUse" color-interpolation-filters="sRGB">
<feFlood flood-opacity="0" result="BackgroundImageFix"/>
<feColorMatrix in="SourceAlpha" type="matrix" values="0 0 0 0 0 0 0 0 0 0 0 0 0 0 0 0 0 0 127 0" result="hardAlpha"/>
<feOffset dy="34"/>
<feGaussianBlur stdDeviation="52"/>
<feColorMatrix type="matrix" values="0 0 0 0 0.0625 0 0 0 0 0.0625 0 0 0 0 0.0625 0 0 0 0.85 0"/>
<feBlend mode="normal" in2="BackgroundImageFix" result="effect1_dropShadow_1_8878"/>
<feBlend mode="normal" in="SourceGraphic" in2="effect1_dropShadow_1_8878" result="shape"/>
</filter>
<linearGradient id="paint0_linear_1_8878" x1="176.566" y1="98" x2="240.566" y2="98" gradientUnits="userSpaceOnUse">
<stop stop-color="#967A53"/>
<stop offset="1" stop-color="#E9D39F"/>
</linearGradient>
<linearGradient id="paint1_linear_1_8878" x1="288.328" y1="165.549" x2="242.658" y2="81.459" gradientUnits="userSpaceOnUse">
<stop stop-color="#333649"/>
<stop offset="1" stop-color="#252632" stop-opacity="0"/>
</linearGradient>
</defs>
</svg>
