<svg width="386" height="296" viewBox="0 0 386 296" fill="none" xmlns="http://www.w3.org/2000/svg">
<g filter="url(#filter0_d_1_8862)">
<rect x="104.381" y="70.3433" width="177.425" height="87.6566" rx="12" fill="#202020"/>
<path d="M166.831 88.6683V84.0683H174.531V102.343H169.406V88.6683H166.831ZM177.024 92.9433C177.024 90.0766 177.607 87.8183 178.774 86.1683C179.941 84.5183 181.774 83.6933 184.274 83.6933C186.774 83.6933 188.607 84.5183 189.774 86.1683C190.957 87.8183 191.549 90.0766 191.549 92.9433C191.549 95.8433 190.966 98.1183 189.799 99.7683C188.632 101.418 186.791 102.243 184.274 102.243C181.757 102.243 179.916 101.418 178.749 99.7683C177.599 98.1183 177.024 95.8433 177.024 92.9433ZM186.699 92.9433C186.699 91.4433 186.541 90.3016 186.224 89.5183C185.907 88.7183 185.257 88.3183 184.274 88.3183C183.291 88.3183 182.641 88.7183 182.324 89.5183C182.007 90.3016 181.849 91.4433 181.849 92.9433C181.849 94.4766 181.999 95.6433 182.299 96.4433C182.616 97.2266 183.274 97.6183 184.274 97.6183C185.274 97.6183 185.924 97.2266 186.224 96.4433C186.541 95.6433 186.699 94.4766 186.699 92.9433ZM193.455 92.9433C193.455 90.0766 194.038 87.8183 195.205 86.1683C196.371 84.5183 198.205 83.6933 200.705 83.6933C203.205 83.6933 205.038 84.5183 206.205 86.1683C207.388 87.8183 207.98 90.0766 207.98 92.9433C207.98 95.8433 207.396 98.1183 206.23 99.7683C205.063 101.418 203.221 102.243 200.705 102.243C198.188 102.243 196.346 101.418 195.18 99.7683C194.03 98.1183 193.455 95.8433 193.455 92.9433ZM203.13 92.9433C203.13 91.4433 202.971 90.3016 202.655 89.5183C202.338 88.7183 201.688 88.3183 200.705 88.3183C199.721 88.3183 199.071 88.7183 198.755 89.5183C198.438 90.3016 198.28 91.4433 198.28 92.9433C198.28 94.4766 198.43 95.6433 198.73 96.4433C199.046 97.2266 199.705 97.6183 200.705 97.6183C201.705 97.6183 202.355 97.2266 202.655 96.4433C202.971 95.6433 203.13 94.4766 203.13 92.9433ZM209.885 92.9433C209.885 90.0766 210.469 87.8183 211.635 86.1683C212.802 84.5183 214.635 83.6933 217.135 83.6933C219.635 83.6933 221.469 84.5183 222.635 86.1683C223.819 87.8183 224.41 90.0766 224.41 92.9433C224.41 95.8433 223.827 98.1183 222.66 99.7683C221.494 101.418 219.652 102.243 217.135 102.243C214.619 102.243 212.777 101.418 211.61 99.7683C210.46 98.1183 209.885 95.8433 209.885 92.9433ZM219.56 92.9433C219.56 91.4433 219.402 90.3016 219.085 89.5183C218.769 88.7183 218.119 88.3183 217.135 88.3183C216.152 88.3183 215.502 88.7183 215.185 89.5183C214.869 90.3016 214.71 91.4433 214.71 92.9433C214.71 94.4766 214.86 95.6433 215.16 96.4433C215.477 97.2266 216.135 97.6183 217.135 97.6183C218.135 97.6183 218.785 97.2266 219.085 96.4433C219.402 95.6433 219.56 94.4766 219.56 92.9433ZM239.091 95.9433H235.066V100.093H230.366V95.9433H226.316V91.5183H230.366V87.3433H235.066V91.5183H239.091V95.9433Z" fill="url(#paint0_linear_1_8862)"/>
<path d="M172.015 135.469C171.187 135.469 170.443 135.325 169.783 135.037C169.135 134.737 168.625 134.329 168.253 133.813C167.881 133.285 167.689 132.679 167.677 131.995H169.423C169.483 132.583 169.723 133.081 170.143 133.489C170.575 133.885 171.199 134.083 172.015 134.083C172.795 134.083 173.407 133.891 173.851 133.507C174.307 133.111 174.535 132.607 174.535 131.995C174.535 131.515 174.403 131.125 174.139 130.825C173.875 130.525 173.545 130.297 173.149 130.141C172.753 129.985 172.219 129.817 171.547 129.637C170.719 129.421 170.053 129.205 169.549 128.989C169.057 128.773 168.631 128.437 168.271 127.981C167.923 127.513 167.749 126.889 167.749 126.109C167.749 125.425 167.923 124.819 168.271 124.291C168.619 123.763 169.105 123.355 169.729 123.067C170.365 122.779 171.091 122.635 171.907 122.635C173.083 122.635 174.043 122.929 174.787 123.517C175.543 124.105 175.969 124.885 176.065 125.857H174.265C174.205 125.377 173.953 124.957 173.509 124.597C173.065 124.225 172.477 124.039 171.745 124.039C171.061 124.039 170.503 124.219 170.071 124.579C169.639 124.927 169.423 125.419 169.423 126.055C169.423 126.511 169.549 126.883 169.801 127.171C170.065 127.459 170.383 127.681 170.755 127.837C171.139 127.981 171.673 128.149 172.357 128.341C173.185 128.569 173.851 128.797 174.355 129.025C174.859 129.241 175.291 129.583 175.651 130.051C176.011 130.507 176.191 131.131 176.191 131.923C176.191 132.535 176.029 133.111 175.705 133.651C175.381 134.191 174.901 134.629 174.265 134.965C173.629 135.301 172.879 135.469 172.015 135.469ZM187.601 130.033C187.601 130.345 187.583 130.675 187.547 131.023H179.663C179.723 131.995 180.053 132.757 180.653 133.309C181.265 133.849 182.003 134.119 182.867 134.119C183.575 134.119 184.163 133.957 184.631 133.633C185.111 133.297 185.447 132.853 185.639 132.301H187.403C187.139 133.249 186.611 134.023 185.819 134.623C185.027 135.211 184.043 135.505 182.867 135.505C181.931 135.505 181.091 135.295 180.347 134.875C179.615 134.455 179.039 133.861 178.619 133.093C178.199 132.313 177.989 131.413 177.989 130.393C177.989 129.373 178.193 128.479 178.601 127.711C179.009 126.943 179.579 126.355 180.311 125.947C181.055 125.527 181.907 125.317 182.867 125.317C183.803 125.317 184.631 125.521 185.351 125.929C186.071 126.337 186.623 126.901 187.007 127.621C187.403 128.329 187.601 129.133 187.601 130.033ZM185.909 129.691C185.909 129.067 185.771 128.533 185.495 128.089C185.219 127.633 184.841 127.291 184.361 127.063C183.893 126.823 183.371 126.703 182.795 126.703C181.967 126.703 181.259 126.967 180.671 127.495C180.095 128.023 179.765 128.755 179.681 129.691H185.909ZM191.401 127.081C191.689 126.517 192.097 126.079 192.625 125.767C193.165 125.455 193.819 125.299 194.587 125.299V126.991H194.155C192.319 126.991 191.401 127.987 191.401 129.979V135.343H189.763V125.479H191.401V127.081ZM200.15 133.831L203.21 125.479H204.956L201.086 135.343H199.178L195.308 125.479H197.072L200.15 133.831ZM207.414 123.877C207.102 123.877 206.838 123.769 206.622 123.553C206.406 123.337 206.298 123.073 206.298 122.761C206.298 122.449 206.406 122.185 206.622 121.969C206.838 121.753 207.102 121.645 207.414 121.645C207.714 121.645 207.966 121.753 208.17 121.969C208.386 122.185 208.494 122.449 208.494 122.761C208.494 123.073 208.386 123.337 208.17 123.553C207.966 123.769 207.714 123.877 207.414 123.877ZM208.206 125.479V135.343H206.568V125.479H208.206ZM210.386 130.393C210.386 129.373 210.59 128.485 210.998 127.729C211.406 126.961 211.97 126.367 212.69 125.947C213.422 125.527 214.256 125.317 215.192 125.317C216.404 125.317 217.4 125.611 218.18 126.199C218.972 126.787 219.494 127.603 219.746 128.647H217.982C217.814 128.047 217.484 127.573 216.992 127.225C216.512 126.877 215.912 126.703 215.192 126.703C214.256 126.703 213.5 127.027 212.924 127.675C212.348 128.311 212.06 129.217 212.06 130.393C212.06 131.581 212.348 132.499 212.924 133.147C213.5 133.795 214.256 134.119 215.192 134.119C215.912 134.119 216.512 133.951 216.992 133.615C217.472 133.279 217.802 132.799 217.982 132.175H219.746C219.482 133.183 218.954 133.993 218.162 134.605C217.37 135.205 216.38 135.505 215.192 135.505C214.256 135.505 213.422 135.295 212.69 134.875C211.97 134.455 211.406 133.861 210.998 133.093C210.59 132.325 210.386 131.425 210.386 130.393ZM230.931 130.033C230.931 130.345 230.913 130.675 230.877 131.023H222.993C223.053 131.995 223.383 132.757 223.983 133.309C224.595 133.849 225.333 134.119 226.197 134.119C226.905 134.119 227.493 133.957 227.961 133.633C228.441 133.297 228.777 132.853 228.969 132.301H230.733C230.469 133.249 229.941 134.023 229.149 134.623C228.357 135.211 227.373 135.505 226.197 135.505C225.261 135.505 224.421 135.295 223.677 134.875C222.945 134.455 222.369 133.861 221.949 133.093C221.529 132.313 221.319 131.413 221.319 130.393C221.319 129.373 221.523 128.479 221.931 127.711C222.339 126.943 222.909 126.355 223.641 125.947C224.385 125.527 225.237 125.317 226.197 125.317C227.133 125.317 227.961 125.521 228.681 125.929C229.401 126.337 229.953 126.901 230.337 127.621C230.733 128.329 230.931 129.133 230.931 130.033ZM229.239 129.691C229.239 129.067 229.101 128.533 228.825 128.089C228.549 127.633 228.171 127.291 227.691 127.063C227.223 126.823 226.701 126.703 226.125 126.703C225.297 126.703 224.589 126.967 224.001 127.495C223.425 128.023 223.095 128.755 223.011 129.691H229.239ZM236.585 135.505C235.829 135.505 235.151 135.379 234.551 135.127C233.951 134.863 233.477 134.503 233.129 134.047C232.781 133.579 232.589 133.045 232.553 132.445H234.245C234.293 132.937 234.521 133.339 234.929 133.651C235.349 133.963 235.895 134.119 236.567 134.119C237.191 134.119 237.683 133.981 238.043 133.705C238.403 133.429 238.583 133.081 238.583 132.661C238.583 132.229 238.391 131.911 238.007 131.707C237.623 131.491 237.029 131.281 236.225 131.077C235.493 130.885 234.893 130.693 234.425 130.501C233.969 130.297 233.573 130.003 233.237 129.619C232.913 129.223 232.751 128.707 232.751 128.071C232.751 127.567 232.901 127.105 233.201 126.685C233.501 126.265 233.927 125.935 234.479 125.695C235.031 125.443 235.661 125.317 236.369 125.317C237.461 125.317 238.343 125.593 239.015 126.145C239.687 126.697 240.047 127.453 240.095 128.413H238.457C238.421 127.897 238.211 127.483 237.827 127.171C237.455 126.859 236.951 126.703 236.315 126.703C235.727 126.703 235.259 126.829 234.911 127.081C234.563 127.333 234.389 127.663 234.389 128.071C234.389 128.395 234.491 128.665 234.695 128.881C234.911 129.085 235.175 129.253 235.487 129.385C235.811 129.505 236.255 129.643 236.819 129.799C237.527 129.991 238.103 130.183 238.547 130.375C238.991 130.555 239.369 130.831 239.681 131.203C240.005 131.575 240.173 132.061 240.185 132.661C240.185 133.201 240.035 133.687 239.735 134.119C239.435 134.551 239.009 134.893 238.457 135.145C237.917 135.385 237.293 135.505 236.585 135.505Z" fill="#BBBBBB"/>
<path fill-rule="evenodd" clip-rule="evenodd" d="M137.548 118.32L140.071 110.258L148.133 107.735L145.61 115.797L137.548 118.32Z" stroke="white" stroke-width="1.5" stroke-linecap="round" stroke-linejoin="round"/>
<ellipse cx="142.841" cy="113.027" rx="15.2253" ry="15.2253" stroke="white" stroke-width="1.5" stroke-linecap="round" stroke-linejoin="round"/>
<rect x="104.881" y="70.8433" width="176.425" height="86.6566" rx="11.5" stroke="url(#paint1_linear_1_8862)"/>
</g>
<defs>
<filter id="filter0_d_1_8862" x="0.381104" y="0.343262" width="385.425" height="295.657" filterUnits="userSpaceOnUse" color-interpolation-filters="sRGB">
<feFlood flood-opacity="0" result="BackgroundImageFix"/>
<feColorMatrix in="SourceAlpha" type="matrix" values="0 0 0 0 0 0 0 0 0 0 0 0 0 0 0 0 0 0 127 0" result="hardAlpha"/>
<feOffset dy="34"/>
<feGaussianBlur stdDeviation="52"/>
<feColorMatrix type="matrix" values="0 0 0 0 0.0625 0 0 0 0 0.0625 0 0 0 0 0.0625 0 0 0 0.85 0"/>
<feBlend mode="normal" in2="BackgroundImageFix" result="effect1_dropShadow_1_8862"/>
<feBlend mode="normal" in="SourceGraphic" in2="effect1_dropShadow_1_8862" result="shape"/>
</filter>
<linearGradient id="paint0_linear_1_8862" x1="166.381" y1="93.8432" x2="240.381" y2="93.8432" gradientUnits="userSpaceOnUse">
<stop stop-color="#967A53"/>
<stop offset="1" stop-color="#E9D39F"/>
</linearGradient>
<linearGradient id="paint1_linear_1_8862" x1="281.807" y1="158" x2="240.758" y2="78.8697" gradientUnits="userSpaceOnUse">
<stop stop-color="#333649"/>
<stop offset="1" stop-color="#252632" stop-opacity="0"/>
</linearGradient>
</defs>
</svg>
